<?xml version="1.0" encoding="UTF-8" standalone="no"?>
<!-- Created with Inkscape (http://www.inkscape.org/) -->

<svg
   xmlns:dc="http://purl.org/dc/elements/1.1/"
   xmlns:cc="http://creativecommons.org/ns#"
   xmlns:rdf="http://www.w3.org/1999/02/22-rdf-syntax-ns#"
   xmlns:svg="http://www.w3.org/2000/svg"
   xmlns="http://www.w3.org/2000/svg"
   xmlns:sodipodi="http://sodipodi.sourceforge.net/DTD/sodipodi-0.dtd"
   xmlns:inkscape="http://www.inkscape.org/namespaces/inkscape"
   version="1.1"
   width="100"
   height="100"
   id="svg2816"
   xml:space="preserve"
   inkscape:version="0.48.5 r10040"
   sodipodi:docname="Cassandra_logo.svg"><sodipodi:namedview
     pagecolor="#ffffff"
     bordercolor="#666666"
     borderopacity="1"
     objecttolerance="10"
     gridtolerance="10"
     guidetolerance="10"
     inkscape:pageopacity="0"
     inkscape:pageshadow="2"
     inkscape:window-width="1920"
     inkscape:window-height="1017"
     id="namedview5094"
     showgrid="false"
     inkscape:zoom="11.657058"
     inkscape:cx="54.418114"
     inkscape:cy="51.28878"
     inkscape:window-x="-8"
     inkscape:window-y="-8"
     inkscape:window-maximized="1"
     inkscape:current-layer="svg2816" /><title
     id="title3537">Apache Cassandra</title><metadata
     id="metadata2822"><rdf:RDF><cc:Work
         rdf:about=""><dc:format>image/svg+xml</dc:format><dc:type
           rdf:resource="http://purl.org/dc/dcmitype/StillImage" /><dc:title>Apache Cassandra</dc:title><cc:license
           rdf:resource="Apache License" /><dc:creator><cc:Agent><dc:title>Apache Software Foundation</dc:title></cc:Agent></dc:creator><dc:source>https://svn.apache.org/repos/asf/cassandra/logo/cassandra.svg</dc:source></cc:Work></rdf:RDF></metadata><defs
     id="defs2820"><clipPath
       id="clipPath2832"><path
         d="M 0,792 612,792 612,0 0,0 0,792 z"
         id="path2834"
         inkscape:connector-curvature="0" /></clipPath><clipPath
       id="clipPath2844"><path
         d="M 0,792 612,792 612,0 0,0 0,792 z"
         id="path2846"
         inkscape:connector-curvature="0" /></clipPath><clipPath
       id="clipPath2852"><path
         d="m 96.0078,715.93 88.2902,0 0,-62.176 -88.2902,0 0,62.176 z"
         id="path2854"
         inkscape:connector-curvature="0" /></clipPath><clipPath
       id="clipPath2868"><path
         d="M 0,792 612,792 612,0 0,0 0,792 z"
         id="path2870"
         inkscape:connector-curvature="0" /></clipPath><clipPath
       id="clipPath2880"><path
         d="M 0,792 612,792 612,0 0,0 0,792 z"
         id="path2882"
         inkscape:connector-curvature="0" /></clipPath><clipPath
       id="clipPath2908"><path
         d="M 0,792 612,792 612,0 0,0 0,792 z"
         id="path2910"
         inkscape:connector-curvature="0" /></clipPath><clipPath
       id="clipPath2936"><path
         d="M 0,792 612,792 612,0 0,0 0,792 z"
         id="path2938"
         inkscape:connector-curvature="0" /></clipPath><clipPath
       id="clipPath2944"><path
         d="m 121.202,708.378 45.899,0 0,-45.859 -45.899,0 0,45.859 z"
         id="path2946"
         inkscape:connector-curvature="0" /></clipPath><clipPath
       id="clipPath2960"><path
         d="M 0,792 612,792 612,0 0,0 0,792 z"
         id="path2962"
         inkscape:connector-curvature="0" /></clipPath><clipPath
       id="clipPath2968"><path
         d="m 40.4033,726.188 212.4017,0 0,-61.818 -212.4017,0 0,61.818 z"
         id="path2970"
         inkscape:connector-curvature="0" /></clipPath><clipPath
       id="clipPath2988"><path
         d="M 0,792 612,792 612,0 0,0 0,792 z"
         id="path2990"
         inkscape:connector-curvature="0" /></clipPath><clipPath
       id="clipPath2996"><path
         d="m 39.5195,688.644 199.3805,0 0,-73.818 -199.3805,0 0,73.818 z"
         id="path2998"
         inkscape:connector-curvature="0" /></clipPath><clipPath
       id="clipPath3016"><path
         d="M 0,792 612,792 612,0 0,0 0,792 z"
         id="path3018"
         inkscape:connector-curvature="0" /></clipPath></defs><g
     id="g2850"
     transform="matrix(0.46284808,0,0,-0.5993976,-17.722508,453.726)" /><path
     inkscape:connector-curvature="0"
     style="fill:#6f6f6f;fill-opacity:1;fill-rule:nonzero;stroke:none"
     id="path2886"
     d="m 37.764553,35.649411 c 0.4485,-1.286307 1.127961,-1.916274 1.786131,-2.99459 -0.07313,-0.255344 -0.233276,-1.090305 -0.233276,-1.379814 0,-1.292301 0.809522,-2.341247 1.807885,-2.341247 0.23559,0 0.460534,0.06054 0.666501,0.166633 2.992313,-2.953232 6.931613,-4.240738 10.890353,-3.09469 0.361484,0.105494 0.716026,0.233166 1.064087,0.373425 -3.912454,-0.702494 -8.322471,1.092102 -11.322189,4.227551 0.09164,0.279919 0.345747,1.080114 0.345747,1.401991 0,1.292901 -0.646136,1.607584 -1.644499,1.607584 -0.226796,0 -0.443409,-0.05634 -0.643822,-0.155244 -0.677609,1.178416 -1.507959,3.42316 -1.914339,4.82635 1.658847,1.921669 3.157549,2.618169 5.110768,3.563419 -0.0051,-0.120479 0.06711,-0.231967 0.06711,-0.354844 0,-3.897882 2.649805,-7.065699 5.660169,-7.065699 2.697479,0 4.931184,2.540247 5.367187,5.872898 1.345962,-1.108886 2.647491,-1.958831 3.639374,-3.60238 -0.231424,-0.365632 -0.480899,-1.400792 -0.480899,-1.91028 0,-1.173021 0.735003,-2.124265 1.640796,-2.124265 0.128209,0 0.251327,0.02398 0.371204,0.05994 0.503579,-1.340253 0.883577,-2.760825 1.126573,-4.225753 -4.707165,-4.512865 -13.814627,-3.897283 -13.814627,-3.897283 0,0 -7.247275,-0.489708 -12.153465,2.60678 0.327234,3.063521 1.270981,5.975994 2.663228,8.439518" /><path
     inkscape:connector-curvature="0"
     style="fill:#6f6f6f;fill-opacity:1;fill-rule:nonzero;stroke:none"
     id="path2890"
     d="m 60.263089,33.891018 c 0.332788,0.38841 0.514224,0.729467 0.657244,1.061533 0.440169,1.02497 -0.442945,1.963027 -1.348739,1.963027 -0.09211,0 -0.180974,-0.01618 -0.269378,-0.03536 -1.02058,2.065524 -2.808099,4.714262 -4.396131,6.047322 2.435044,0.516681 4.731233,1.779612 6.558558,3.73125 1.330688,-3.087497 2.351268,-7.545816 2.351268,-11.33281 0,-2.882503 -0.982627,-4.99538 -2.466055,-6.545422 -0.07776,1.544048 -0.714174,3.703678 -1.086767,5.110464" /><path
     inkscape:connector-curvature="0"
     style="fill:#6f6f6f;fill-opacity:1;fill-rule:nonzero;stroke:none"
     id="path2894"
     d="m 40.496467,53.446365 c 0.811373,-2.901684 2.807174,-5.150024 4.695131,-7.128036 -0.27632,-0.489708 -0.690569,-1.702289 -0.863212,-2.276512 -2.302669,-0.906889 -4.340126,-2.604383 -5.92029,-4.851525 -0.01157,0.06533 -0.02592,0.128871 -0.03795,0.194205 -0.297611,1.726865 -0.352227,3.457326 -0.204116,5.145229 1.102504,0.266133 1.937019,1.517076 1.937019,3.022163 0,0.892503 -0.604017,2.186003 -1.072882,2.748837 0.509596,1.424169 0.857195,2.111079 1.466303,3.145639" /><path
     inkscape:connector-curvature="0"
     style="fill:#6f6f6f;fill-opacity:1;fill-rule:nonzero;stroke:none"
     id="path2898"
     d="m 40.096278,56.225397 c -0.967815,-1.246148 -1.637094,-3.731849 -2.265179,-5.292681 -0.117563,0.02338 -0.237903,0.03956 -0.361021,0.03956 -1.312637,0 -2.687759,-1.426566 -2.376725,-3.077307 0.17218,-0.913482 0.659096,-1.511081 1.451955,-2.00978 -0.180511,-1.892298 -0.229573,-4.612365 0.109695,-6.579587 0.0972,-0.562835 0.303165,-0.82657 0.439705,-1.362431 -1.448251,-2.744642 -2.38413,-6.347021 -2.38413,-9.921229 0,-0.130669 0.0051,-0.259539 0.0074,-0.389009 -2.44754,1.589602 -4.282733,4.093885 -4.282733,8.036123 0,8.720037 3.878204,17.27404 9.648531,20.62707 0.0042,-0.02338 0.0079,-0.04735 0.0125,-0.07073" /><path
     inkscape:connector-curvature="0"
     style="fill:#6f6f6f;fill-opacity:1;fill-rule:nonzero;stroke:none"
     id="path2902"
     d="m 54.542564,43.827292 c -0.745648,2.74644 -2.761814,4.719057 -5.137614,4.719057 -1.270981,0 -2.436895,-0.567629 -3.363517,-1.511081 -1.910174,1.926464 -3.643077,5.310663 -4.523877,8.246512 0.395272,0.550847 0.670667,1.003991 1.114076,1.4925 1.336242,0.450747 3.176526,0 4.622926,0 5.818,0 10.970888,-3.351831 13.925247,-9.229524 -1.964327,-1.76163 -4.281344,-3.438145 -6.637241,-3.717464" /><g
     id="g2942"
     transform="matrix(0.46284808,0,0,-0.5993976,-17.722508,453.726)" /><path
     inkscape:connector-curvature="0"
     style="fill:#6f6f6f;fill-opacity:1;fill-rule:nonzero;stroke:none"
     id="path2982"
     d="M 1.6181082,53.9682 C 17.234602,33.745124 29.706507,27.502398 41.025919,24.651663 c 1.49824,-0.377021 1.781503,-4.614762 1.781503,-4.614762 0,0 0.209207,3.122262 1.258021,3.528654 1.047888,0.406991 2.41005,-4.88569 2.41005,-4.88569 0,0 -1.257559,4.750825 0,5.021753 1.258021,0.270928 3.563467,-4.614762 3.563467,-4.614762 0,0 -0.942821,4.207172 -0.314737,4.478699 0.629011,0.271527 3.773138,-6.107862 3.773138,-6.107862 0,0 -1.886569,4.207772 -0.104604,4.614763 1.781503,0.40759 4.381783,-2.871115 4.381783,-2.871115 0,0 -2.043937,2.999985 -1.133052,3.414169 3.878204,1.764626 7.015388,-4.762214 7.015388,-4.762214 0,0 -0.727134,2.862123 -2.612777,5.983786 4.086948,1.357636 7.122769,-6.617349 7.122769,-6.617349 l -3.035821,7.974985 c 1.572295,1.085509 7.860549,-8.27888 7.860549,-8.27888 0,0 -3.248267,7.328235 -5.134836,8.821334 1.047888,1.086109 4.821025,-3.257126 4.821025,-3.257126 0,0 -3.039523,4.886289 -1.886568,5.157217 1.676898,1.765226 7.860086,-9.093461 7.860086,-9.093461 0,0 -2.410976,6.379388 -5.973518,11.401142 2.978428,1.93006 10.376129,-10.451097 10.376129,-10.451097 0,0 -0.209671,3.936843 -5.555103,10.180169 3.982808,-0.679118 9.11857,-10.451696 9.11857,-10.451696 0,0 -1.886569,7.329434 -6.393783,12.48725 3.910603,-0.52687 10.165995,-13.029705 10.165995,-13.029705 0,0 -2.41005,8.68647 -7.335679,13.708223 5.450036,1.560832 13.310585,-8.957398 13.310585,-8.957398 0,0 -3.091825,7.464299 -7.127398,10.51823 4.507215,2.239349 10.690865,-6.990175 10.690865,-6.990175 0,0 -6.18365,12.351786 -16.036297,11.808732 C 80.660063,38.588856 70.882398,26.066841 49.933894,27.094808 22.265298,28.451844 16.395922,43.653167 1.6181082,53.9682" /><path
     inkscape:connector-curvature="0"
     style="fill:#6f6f6f;fill-opacity:1;fill-rule:nonzero;stroke:none"
     id="path3010"
     d="M 0.25488171,56.494242 C 8.5083887,61.855854 16.054664,55.68026 25.565729,59.151971 c 7.231076,2.638548 16.035835,5.893277 27.983795,3.653328 11.94796,-2.239349 22.166257,-8.957997 27.04051,-20.969325 1.519531,-5.361012 7.702718,1.220973 7.702718,1.220973 0,0 -4.506289,-2.442546 -4.401222,-1.288705 0.104603,1.153241 6.759896,5.157217 6.759896,5.157217 0,0 -6.026745,-2.442546 -5.659706,-0.610187 0.367038,1.831759 7.546275,9.161193 7.546275,9.161193 0,0 -8.122984,-8.008551 -8.803834,-6.921844 -0.680849,1.085509 3.458864,5.496476 3.458864,5.496476 0,0 -6.865425,-5.496476 -9.275938,-3.876304 -1.734292,1.165229 7.126934,8.694862 7.126934,8.694862 0,0 -5.764772,-5.700871 -7.126934,-4.207771 -1.362625,1.493698 6.49885,13.708822 6.49885,13.708822 0,0 -8.909826,-12.48725 -9.800346,-11.876464 -0.890519,0.611386 2.463278,6.582584 2.463278,6.582584 0,0 -4.402611,-6.243325 -5.607405,-5.157217 -1.205256,1.08551 6.288254,17.305209 6.288254,17.305209 0,0 -8.122521,-16.62669 -11.476318,-13.844287 5.266749,14.963961 3.301496,17.102013 3.301496,17.102013 0,0 -0.672056,-15.266657 -7.232002,-14.862064 -3.301495,0.203795 1.571832,11.400542 1.571832,11.400542 0,0 -4.48546,-10.227521 -7.472219,-10.023726 5.506041,13.493639 3.542639,18.981724 3.542639,18.981724 0,0 0.910422,-11.524618 -6.556706,-17.937573 2.829391,3.257127 -1.775485,17.937573 -1.775485,17.937573 0,0 4.051772,-21.632859 -2.986759,-17.508404 -1.112223,0.650945 -0.07868,10.790355 -0.07868,10.790355 0,0 -1.415852,-11.604937 -3.537085,-10.994151 -1.237656,0.355443 -7.861474,16.083636 -7.861474,16.083636 0,0 5.424116,-17.000114 3.7736,-16.286831 -1.202479,0.518479 -3.458864,7.53203 -3.458864,7.53203 0,0 1.100653,-6.921844 0,-7.328835 -1.10019,-0.40699 -7.231538,7.328835 -7.231538,7.328835 0,0 4.559516,-6.921844 3.772675,-8.347211 -1.191371,-2.15963 -2.587784,-2.260328 -4.244317,-1.424169 -2.411439,1.216178 -5.659707,6.921244 -5.659707,6.921244 0,0 3.238086,-5.776994 2.672485,-7.94022 -0.909033,-3.475906 -10.218297,6.718648 -10.218297,6.718648 0,0 5.502338,-6.718648 4.244317,-8.143416 C 19.591749,59.955164 12.762888,60.39632 10.630547,60.387929 4.3422931,60.362155 2.1636672,58.452474 0.25488171,56.494242" /></svg>