<?xml version="1.0" encoding="UTF-8" standalone="no"?>
<!-- Generator: Adobe Illustrator 15.0.2, SVG Export Plug-In  -->

<svg
   xmlns:dc="http://purl.org/dc/elements/1.1/"
   xmlns:cc="http://creativecommons.org/ns#"
   xmlns:rdf="http://www.w3.org/1999/02/22-rdf-syntax-ns#"
   xmlns:svg="http://www.w3.org/2000/svg"
   xmlns="http://www.w3.org/2000/svg"
   xmlns:sodipodi="http://sodipodi.sourceforge.net/DTD/sodipodi-0.dtd"
   xmlns:inkscape="http://www.inkscape.org/namespaces/inkscape"
   version="1.1"
   x="0px"
   y="0px"
   width="100"
   height="100"
   viewBox="-32.12 -52.094 100 100"
   enable-background="new -32.12 -52.094 850 350"
   xml:space="preserve"
   id="svg6375"
   inkscape:version="0.48.5 r10040"
   sodipodi:docname="directx.svg"><metadata
   id="metadata6417"><rdf:RDF><cc:Work
       rdf:about=""><dc:format>image/svg+xml</dc:format><dc:type
         rdf:resource="http://purl.org/dc/dcmitype/StillImage" /></cc:Work></rdf:RDF></metadata><sodipodi:namedview
   pagecolor="#ffffff"
   bordercolor="#666666"
   borderopacity="1"
   objecttolerance="10"
   gridtolerance="10"
   guidetolerance="10"
   inkscape:pageopacity="0"
   inkscape:pageshadow="2"
   inkscape:window-width="1920"
   inkscape:window-height="1017"
   id="namedview6415"
   showgrid="false"
   inkscape:zoom="5.3835294"
   inkscape:cx="111.64384"
   inkscape:cy="61.901655"
   inkscape:window-x="-8"
   inkscape:window-y="112"
   inkscape:window-maximized="1"
   inkscape:current-layer="svg6375" />
<defs
   id="defs6377">
</defs>
<path
   d="m -21.722971,-9.125872 h -0.911974 v -5.253809 c 0,-0.415038 0.02537,-0.922919 0.07649,-1.523645 h -0.02189 c -0.08743,0.353221 -0.165727,0.606258 -0.23488,0.759117 l -2.676032,6.018337 h -0.447868 l -2.6705,-5.974681 c -0.07649,-0.174745 -0.154782,-0.442336 -0.234879,-0.802773 h -0.02177 c 0.02911,0.313173 0.04366,0.824662 0.04366,1.534591 v 5.242863 h -0.884795 v -7.831462 h 1.212399 l 2.402909,5.461266 c 0.18569,0.418642 0.305836,0.731815 0.360436,0.939395 h 0.03272 c 0.156466,-0.429589 0.282143,-0.749977 0.376792,-0.961166 l 2.452339,-5.439495 h 1.146854 v 7.831462 z"
   id="path6379"
   style="fill:#6f6f6f;fill-opacity:1"
   inkscape:connector-curvature="0" />
<path
   d="m -19.325474,-16.138205 c -0.160314,0 -0.296816,-0.0546 -0.409625,-0.163802 -0.112809,-0.1092 -0.169334,-0.247628 -0.169334,-0.415038 0,-0.16741 0.0564,-0.306675 0.169334,-0.417804 0.112809,-0.111002 0.249311,-0.166564 0.409625,-0.166564 0.163802,0 0.30319,0.05556 0.417803,0.166564 0.114733,0.111006 0.1721,0.250394 0.1721,0.417804 0,0.160317 -0.05737,0.296816 -0.1721,0.409624 -0.114613,0.112812 -0.254001,0.169216 -0.417803,0.169216 z m 0.436925,7.012333 h -0.895619 v -5.592356 h 0.895619 v 5.592356 z"
   id="path6381"
   style="fill:#6f6f6f;fill-opacity:1"
   inkscape:connector-curvature="0" />
<path
   d="m -13.263481,-9.382519 c -0.429589,0.258452 -0.939395,0.387736 -1.529178,0.387736 -0.797361,0 -1.440904,-0.259412 -1.930626,-0.77824 -0.489722,-0.518824 -0.734462,-1.191472 -0.734462,-2.017936 0,-0.921117 0.263983,-1.661112 0.791829,-2.219987 0.527847,-0.558876 1.232363,-0.838371 2.11355,-0.838371 0.491526,0 0.924723,0.09104 1.299831,0.27312 v 0.91751 c -0.415037,-0.291283 -0.859298,-0.436927 -1.332544,-0.436927 -0.571623,0 -1.040298,0.204814 -1.406266,0.614319 -0.365848,0.409624 -0.548773,0.947575 -0.548773,1.613845 0,0.655327 0.1721,1.172349 0.51606,1.550948 0.344081,0.378716 0.80554,0.568015 1.384499,0.568015 0.487919,0 0.946612,-0.162 1.3762,-0.486115 v 0.852083 z"
   id="path6383"
   style="fill:#6f6f6f;fill-opacity:1"
   inkscape:connector-curvature="0" />
<path
   d="m -8.9927252,-13.811665 c -0.1565864,-0.120147 -0.3823249,-0.180277 -0.6772164,-0.180277 -0.3823244,0 -0.7017504,0.180277 -0.9585174,0.540713 -0.256647,0.360436 -0.38497,0.851961 -0.38497,1.474579 v 2.850778 h -0.895619 v -5.592356 h 0.895619 v 1.152384 h 0.02189 c 0.127482,-0.393267 0.322192,-0.699946 0.584372,-0.920271 0.262179,-0.220206 0.5551456,-0.33037 0.8792615,-0.33037 0.2329546,0 0.4114293,0.02551 0.5351832,0.07649 v 0.928329 z"
   id="path6385"
   style="fill:#6f6f6f;fill-opacity:1"
   inkscape:connector-curvature="0" />
<path
   d="m -5.8305783,-8.994783 c -0.8265866,0 -1.4863645,-0.261218 -1.9796946,-0.783773 -0.49333,-0.522432 -0.7399951,-1.215163 -0.7399951,-2.077947 0,-0.939399 0.2566475,-1.673019 0.7700613,-2.200865 0.5134149,-0.527846 1.206987,-0.791831 2.0807174,-0.791831 0.8336823,0 1.4845601,0.25665 1.9523936,0.770064 0.467834,0.513414 0.7017505,1.225268 0.7017505,2.135317 0,0.892012 -0.2521972,1.606509 -0.756471,2.143496 -0.5042743,0.536986 -1.1805286,0.805539 -2.0287621,0.805539 z m 0.065543,-5.100831 c -0.5753518,0 -1.0303168,0.195674 -1.3653769,0.587139 -0.3350601,0.391343 -0.5024707,0.931096 -0.5024707,1.619258 0,0.662662 0.1693341,1.185098 0.5078823,1.567423 0.3385482,0.382325 0.7918297,0.573426 1.3598444,0.573426 0.5788388,0 1.0239423,-0.187493 1.3353103,-0.562484 0.3112478,-0.374986 0.4668712,-0.908364 0.4668712,-1.600135 0,-0.699106 -0.1556234,-1.237776 -0.4668712,-1.616493 -0.3112478,-0.378834 -0.756351,-0.568134 -1.3351894,-0.568134 z"
   id="path6387"
   style="fill:#6f6f6f;fill-opacity:1"
   inkscape:connector-curvature="0" />
<path
   d="m -1.953092,-9.327921 v -0.96116 c 0.4879182,0.360436 1.0247842,0.540713 1.6110797,0.540713 0.7864174,0 1.1796864,-0.262179 1.1796864,-0.786416 0,-0.149252 -0.033673,-0.275768 -0.1010234,-0.379559 -0.06747,-0.103671 -0.1583898,-0.195674 -0.2731232,-0.275768 -0.1147339,-0.0801 -0.2494313,-0.152018 -0.404093,-0.215757 -0.1547822,-0.06362 -0.3213502,-0.130129 -0.499704,-0.199281 -0.2476269,-0.09826 -0.4651878,-0.197476 -0.6526822,-0.297658 -0.187494,-0.100182 -0.3439596,-0.21299 -0.4696375,-0.338546 -0.1255575,-0.12568 -0.2203268,-0.268435 -0.2839472,-0.428751 -0.063741,-0.160194 -0.095491,-0.347688 -0.095491,-0.562479 0,-0.262183 0.060132,-0.494173 0.180278,-0.69634 0.1201455,-0.202047 0.2803396,-0.371382 0.4805821,-0.507881 0.2002425,-0.136626 0.428627,-0.239452 0.685394,-0.308604 0.2566474,-0.06915 0.5214722,-0.103791 0.7945957,-0.103791 0.4841897,0 0.917507,0.08382 1.2998318,0.251236 v 0.906563 c -0.4114291,-0.269394 -0.8846745,-0.404092 -1.4199772,-0.404092 -0.1675303,0 -0.3185839,0.01912 -0.4532814,0.05737 -0.1346975,0.03824 -0.2503932,0.09201 -0.3468464,0.161159 -0.096453,0.06915 -0.1711379,0.152014 -0.2238146,0.24847 -0.052796,0.09645 -0.0792545,0.203007 -0.0792545,0.319423 0,0.145644 0.0263391,0.267593 0.0792545,0.36585 0.052676,0.09826 0.1301277,0.185687 0.232113,0.262178 0.1018652,0.07649 0.2257387,0.145641 0.3713803,0.207581 0.1455215,0.06194 0.3112478,0.129283 0.4969382,0.202043 0.2476269,0.09477 0.4696376,0.192066 0.6662721,0.292248 0.1966345,0.100182 0.3640442,0.21299 0.5024702,0.338547 0.1383055,0.125556 0.2448607,0.270358 0.3195458,0.434161 0.074565,0.163801 0.1119675,0.358629 0.1119675,0.584369 0,0.276732 -0.060975,0.517021 -0.1829241,0.720875 -0.1219498,0.203968 -0.2849098,0.373303 -0.4887599,0.507882 -0.2039706,0.134697 -0.4387293,0.234879 -0.7045167,0.300423 -0.2657871,0.06554 -0.5443227,0.09826 -0.835606,0.09826 -0.575592,-1.23e-4 -1.0743338,-0.111248 -1.496707,-0.33326 z"
   id="path6389"
   style="fill:#6f6f6f;fill-opacity:1"
   inkscape:connector-curvature="0" />
<path
   d="m 5.468866,-8.994783 c -0.8265863,0 -1.4863639,-0.261218 -1.9798142,-0.783773 -0.4934504,-0.522432 -0.7399948,-1.215163 -0.7399948,-2.077947 0,-0.939399 0.256767,-1.673019 0.7700613,-2.200865 0.5134143,-0.527846 1.2069867,-0.791831 2.0808373,-0.791831 0.8336818,0 1.48456,0.25665 1.9522736,0.770064 0.4677128,0.513414 0.7017498,1.225268 0.7017498,2.135317 0,0.892012 -0.252076,1.606509 -0.756351,2.143496 -0.5042738,0.536986 -1.1805281,0.805539 -2.028762,0.805539 z m 0.065545,-5.100831 c -0.5753509,0 -1.0304364,0.195674 -1.3654969,0.587139 -0.3350602,0.391466 -0.5024699,0.931096 -0.5024699,1.619258 0,0.662662 0.1693338,1.185098 0.5080024,1.567423 0.3386682,0.382325 0.7919496,0.573426 1.3599644,0.573426 0.5788393,0 1.0239425,-0.187493 1.3353104,-0.562484 0.3112478,-0.374986 0.4668717,-0.908364 0.4668717,-1.600135 0,-0.699106 -0.1556239,-1.237776 -0.4668717,-1.616493 -0.3113679,-0.378834 -0.7564711,-0.568134 -1.3353104,-0.568134 z"
   id="path6391"
   style="fill:#6f6f6f;fill-opacity:1"
   inkscape:connector-curvature="0" />
<path
   d="m 12.24632,-16.618787 c -0.174746,-0.09826 -0.373304,-0.147446 -0.595195,-0.147446 -0.626344,0 -0.939395,0.395074 -0.939395,1.185098 v 0.862907 h 1.310655 v 0.764527 H 10.71173 v 4.827829 H 9.821523 v -4.827829 H 8.865771 v -0.764527 h 0.955752 v -0.906563 c 0,-0.586174 0.169334,-1.04944 0.507882,-1.389911 0.338668,-0.340353 0.760801,-0.510648 1.266878,-0.510648 0.273125,0 0.489722,0.0327 0.649917,0.09826 v 0.808306 z"
   id="path6393"
   style="fill:#6f6f6f;fill-opacity:1"
   inkscape:connector-curvature="0" />
<path
   d="m 15.779607,-9.180475 c -0.211188,0.116539 -0.489603,0.17475 -0.835485,0.17475 -0.979446,0 -1.469046,-0.546128 -1.469046,-1.638382 v -3.309594 h -0.961165 v -0.764527 h 0.961165 v -1.365375 l 0.895616,-0.289481 v 1.654738 h 1.408915 v 0.764527 h -1.408915 v 3.151323 c 0,0.374987 0.06362,0.64258 0.191105,0.802773 0.127481,0.160313 0.338547,0.24029 0.633556,0.24029 0.22574,0 0.420571,-0.06193 0.584254,-0.185692 v 0.76465 z"
   id="path6395"
   style="fill:#6f6f6f;fill-opacity:1"
   inkscape:connector-curvature="0" />
<path
   d="M -29.72028,14.253902 V -7.135236 h 5.90661 c 7.537293,0 11.306179,3.4753206 11.306179,10.4261989 0,3.3014129 -1.046672,5.9538731 -3.139777,7.9574991 -2.093345,2.003868 -4.894934,3.00544 -8.40501,3.00544 h -5.668002 z m 2.505856,-19.1218871 V 11.986773 h 3.191972 c 2.804116,0 4.986698,-0.750699 6.547987,-2.2522141 1.561049,-1.5013995 2.341815,-3.6296225 2.341815,-6.3839435 0,-5.4790651 -2.913677,-8.2186005 -8.740672,-8.2186005 h -3.341102 z"
   id="path6397"
   style="fill:#6f6f6f;fill-opacity:1"
   inkscape:connector-curvature="0" />
<path
   d="m -7.3764744,-4.8978085 c -0.4376465,0 -0.8105908,-0.1491341 -1.1187118,-0.4475099 -0.3083611,-0.2982587 -0.4624212,-0.6761336 -0.4624212,-1.1336256 0,-0.457252 0.1540601,-0.837652 0.4624212,-1.141084 0.308121,-0.303189 0.6810653,-0.454962 1.1187118,-0.454962 0.447509,0 0.8277893,0.151773 1.1410811,0.454962 0.3131718,0.303432 0.4698782,0.683832 0.4698782,1.141084 0,0.437646 -0.1565855,0.8105886 -0.4698782,1.1187106 -0.3132918,0.3083638 -0.6935721,0.4624249 -1.1410811,0.4624249 z M -6.1831978,14.253902 H -8.6294025 V -1.019844 h 2.4462047 v 15.273746 z"
   id="path6399"
   style="fill:#6f6f6f;fill-opacity:1"
   inkscape:connector-curvature="0" />
<path
   d="M 6.7338209,1.4561887 C 6.3061558,1.1279838 5.6896737,0.9640595 4.8842544,0.9640595 c -1.0441472,0 -1.9167949,0.4921292 -2.6177036,1.4765031 C 1.5654017,3.4250592 1.2149473,4.7674613 1.2149473,6.4677792 V 14.253784 H -1.2312573 V -1.0199621 h 2.4462046 v 3.1473519 h 0.059653 c 0.3480489,-1.0739725 0.8799842,-1.9116242 1.5960461,-2.5133132 0.7159418,-0.6015671 1.5161897,-0.902473 2.4014659,-0.902473 0.6362056,0 1.1236424,0.069752 1.4617095,0.2087818 v 2.5358033 z"
   id="path6401"
   style="fill:#6f6f6f;fill-opacity:1"
   inkscape:connector-curvature="0" />
<path
   d="M 21.261799,7.2287027 H 10.477812 c 0.03957,1.7004361 0.497179,3.0130153 1.372233,3.9377403 0.874813,0.924721 2.078192,1.387023 3.609653,1.387023 1.720281,0 3.301294,-0.566811 4.743283,-1.700436 v 2.297075 c -1.342407,0.97475 -3.11741,1.461707 -5.325008,1.461707 -2.157806,0 -3.853432,-0.693449 -5.086277,-2.080718 C 8.558612,11.144072 7.9421301,9.1925177 7.9421301,6.6765611 c 0,-2.3764508 0.6736079,-4.3128495 2.0211859,-5.8096764 1.347217,-1.4964641 3.020354,-2.2448798 5.019047,-2.2448798 1.998699,0 3.544833,0.6465502 4.63877,1.939046 1.093938,1.2928549 1.640784,3.0876994 1.640784,5.3846557 V 7.2287027 z M 18.755942,5.1553186 c -0.0099,-1.411677 -0.350453,-2.510784 -1.021777,-3.2962393 -0.671083,-0.7854563 -1.603384,-1.1784872 -2.79654,-1.1784872 -1.153708,0 -2.132913,0.4127538 -2.938451,1.2381397 -0.80554,0.8253801 -1.302839,1.9042852 -1.491535,3.2365868 h 8.248303 z"
   id="path6403"
   style="fill:#6f6f6f;fill-opacity:1"
   inkscape:connector-curvature="0" />
<path
   d="m 35.372093,13.552994 c -1.173314,0.705839 -2.565509,1.058941 -4.176469,1.058941 -2.177651,0 -3.935455,-0.708486 -5.272688,-2.125338 -1.337475,-1.417092 -2.00627,-3.2540269 -2.00627,-5.5115373 0,-2.5154749 0.720871,-4.5367816 2.162856,-6.0630738 1.441507,-1.5262912 3.365755,-2.2897401 5.772271,-2.2897401 1.342408,0 2.525821,0.2487104 3.550006,0.7457676 V 1.8738705 C 34.268173,1.0785547 33.054931,0.6805921 31.762317,0.6805921 c -1.561048,0 -2.841519,0.5594768 -3.840807,1.6780697 -0.999528,1.1188337 -1.49911,2.587876 -1.49911,4.407498 0,1.7899129 0.469759,3.2020736 1.409633,4.2361172 0.939636,1.034526 2.200019,1.551189 3.781032,1.551189 1.332547,0 2.585473,-0.442338 3.758787,-1.327375 v 2.326903 z"
   id="path6405"
   style="fill:#6f6f6f;fill-opacity:1"
   inkscape:connector-curvature="0" />
<path
   d="m 46.15632,14.104772 c -0.576915,0.318223 -1.337475,0.477335 -2.282283,0.477335 -2.67495,0 -4.012185,-1.491536 -4.012185,-4.474728 V 1.0684495 H 37.23669 v -2.0881707 h 2.625162 v -3.7288399 l 2.446204,-0.790507 v 4.519466 h 3.848264 v 2.0881744 h -3.848264 v 8.606576 c 0,1.0241797 0.173785,1.7551557 0.521955,2.1924427 0.348168,0.437887 0.924721,0.656287 1.730259,0.656287 0.616604,0 1.148658,-0.168853 1.59605,-0.507158 v 2.088052 z"
   id="path6407"
   style="fill:#6f6f6f;fill-opacity:1"
   inkscape:connector-curvature="0" />
<path
   d="M 64.517525,14.253902 H 61.459889 L 56.537653,6.0652487 C 56.388524,5.8167839 56.224362,5.4636825 56.045287,5.0060712 H 55.98563 C 55.886289,5.235054 55.717196,5.5879145 55.478472,6.0652487 L 50.407106,14.253902 H 47.334439 L 54.493975,3.4997438 47.90125,-7.135236 h 3.072667 l 4.370459,7.5174522 c 0.288153,0.497539 0.541913,0.9945971 0.760559,1.4915362 h 0.05966 c 0.318222,-0.6562917 0.596638,-1.1730727 0.835244,-1.5511886 l 4.54953,-7.4577998 h 2.878682 L 57.70111,3.4699157 64.517528,14.253902 z"
   id="path6409"
   style="fill:#6f6f6f;fill-opacity:1"
   inkscape:connector-curvature="0" />
<path
   d="m 17.790209,-13.341665 c -0.413955,0 -0.766934,-0.146004 -1.059181,-0.438251 -0.292243,-0.292125 -0.438248,-0.645222 -0.438248,-1.059178 0,-0.413954 0.146005,-0.766934 0.438248,-1.059181 0.292124,-0.292125 0.645226,-0.438246 1.059181,-0.438246 0.412749,0 0.765009,0.146121 1.057257,0.438246 0.292243,0.292247 0.438365,0.645227 0.438365,1.059181 0,0.413956 -0.146122,0.767053 -0.438365,1.059178 -0.292125,0.292247 -0.644508,0.438251 -1.057257,0.438251 z m 0,-2.819152 c -0.364644,0 -0.676134,0.129169 -0.934344,0.38738 -0.258211,0.258211 -0.387375,0.569695 -0.387375,0.934461 0,0.364768 0.129042,0.675893 0.387375,0.933384 0.25821,0.257607 0.5697,0.386293 0.934344,0.386293 0.364767,0 0.675892,-0.128804 0.933502,-0.386293 0.25761,-0.257491 0.386416,-0.568739 0.386416,-0.933384 0,-0.364643 -0.128806,-0.676132 -0.386416,-0.934461 -0.257487,-0.258334 -0.568616,-0.38738 -0.933502,-0.38738 z m 0.726764,2.258111 h -0.323392 l -0.207699,-0.457252 c -0.105113,-0.228864 -0.218163,-0.343356 -0.339392,-0.343356 h -0.175709 v 0.800608 h -0.265545 v -1.904768 h 0.535184 c 0.222249,0 0.393509,0.04666 0.514015,0.139747 0.120384,0.09321 0.180759,0.219605 0.180759,0.379317 0,0.130489 -0.04233,0.241618 -0.12688,0.333378 -0.08454,0.09176 -0.202767,0.153702 -0.354425,0.185691 v 0.008 c 0.105232,0.02263 0.209745,0.139752 0.313535,0.351418 l 0.249549,0.507281 z m -1.046069,-1.677106 v 0.650878 h 0.285632 c 0.262178,0 0.393267,-0.109082 0.393267,-0.327482 0,-0.117139 -0.03524,-0.200363 -0.105715,-0.249552 -0.07072,-0.04919 -0.18256,-0.07385 -0.335421,-0.07385 h -0.237763 z"
   id="path6411"
   style="fill:#6f6f6f;fill-opacity:1"
   inkscape:connector-curvature="0" />
<path
   d="m 66.140273,-3.9732063 c -0.413956,0 -0.767057,-0.1460031 -1.059305,-0.4382511 -0.292244,-0.2921244 -0.438247,-0.6452257 -0.438247,-1.0591766 0,-0.4139556 0.146003,-0.766939 0.438247,-1.059182 0.292248,-0.292125 0.645226,-0.438251 1.059305,-0.438251 0.412631,0 0.764885,0.146126 1.057134,0.438251 0.292243,0.292243 0.438369,0.6452264 0.438369,1.059182 0,0.4139509 -0.146126,0.7670522 -0.438369,1.0591766 -0.292249,0.292248 -0.644626,0.4382511 -1.057134,0.4382511 z m 0,-2.8191517 c -0.36465,0 -0.676139,0.129165 -0.934468,0.387376 -0.25821,0.258211 -0.387375,0.5696988 -0.387375,0.9344661 0,0.3647673 0.129046,0.6758918 0.387375,0.9333838 0.258329,0.2574874 0.5697,0.3862929 0.934468,0.3862929 0.364762,0 0.675891,-0.1288055 0.933379,-0.3862929 0.257728,-0.2576101 0.386414,-0.5687393 0.386414,-0.9333838 0,-0.3646445 -0.128686,-0.6761341 -0.386414,-0.9344661 -0.257488,-0.25833 -0.568736,-0.387376 -0.933379,-0.387376 z m 0.726763,2.2581103 H 66.54364 l -0.207699,-0.4572504 c -0.10511,-0.2288647 -0.218281,-0.3433561 -0.339388,-0.3433561 h -0.175709 v 0.8006065 H 65.555299 V -6.439016 h 0.535062 c 0.222249,0 0.393627,0.04666 0.514132,0.139748 0.120389,0.09321 0.180642,0.219606 0.180642,0.3793177 0,0.1304882 -0.04233,0.2416134 -0.126881,0.3333775 -0.08454,0.091762 -0.202648,0.153702 -0.354303,0.1856918 v 0.00797 c 0.105115,0.022629 0.209624,0.1397516 0.313414,0.3514178 l 0.249671,0.5072804 z M 65.820844,-6.211352 v 0.6508774 h 0.28551 c 0.262182,0 0.39339,-0.1090816 0.39339,-0.3274821 0,-0.1171383 -0.03536,-0.2003643 -0.105834,-0.2495523 -0.0706,-0.04918 -0.182443,-0.07384 -0.33542,-0.07384 h -0.237646 z"
   id="path6413"
   style="fill:#6f6f6f;fill-opacity:1"
   inkscape:connector-curvature="0" />
</svg>