<?xml version="1.0" encoding="UTF-8" standalone="no"?>
<!-- Created with Inkscape (http://www.inkscape.org/) -->

<svg
   xmlns:dc="http://purl.org/dc/elements/1.1/"
   xmlns:cc="http://creativecommons.org/ns#"
   xmlns:rdf="http://www.w3.org/1999/02/22-rdf-syntax-ns#"
   xmlns:svg="http://www.w3.org/2000/svg"
   xmlns="http://www.w3.org/2000/svg"
   xmlns:sodipodi="http://sodipodi.sourceforge.net/DTD/sodipodi-0.dtd"
   xmlns:inkscape="http://www.inkscape.org/namespaces/inkscape"
   version="1.1"
   width="100"
   height="100"
   id="svg2948"
   inkscape:version="0.48.5 r10040"
   sodipodi:docname="django.svg">
  <metadata
     id="metadata5814">
    <rdf:RDF>
      <cc:Work
         rdf:about="">
        <dc:format>image/svg+xml</dc:format>
        <dc:type
           rdf:resource="http://purl.org/dc/dcmitype/StillImage" />
      </cc:Work>
    </rdf:RDF>
  </metadata>
  <sodipodi:namedview
     pagecolor="#ffffff"
     bordercolor="#666666"
     borderopacity="1"
     objecttolerance="10"
     gridtolerance="10"
     guidetolerance="10"
     inkscape:pageopacity="0"
     inkscape:pageshadow="2"
     inkscape:window-width="1920"
     inkscape:window-height="1137"
     id="namedview5812"
     showgrid="false"
     inkscape:zoom="2.2"
     inkscape:cx="177.62734"
     inkscape:cy="32.290502"
     inkscape:window-x="1912"
     inkscape:window-y="-8"
     inkscape:window-maximized="1"
     inkscape:current-layer="svg2948" />
  <defs
     id="defs2950" />
  <path
     inkscape:connector-curvature="0"
     style="fill:#6f6f6f;fill-opacity:1;fill-rule:evenodd;stroke:none"
     id="path2838"
     d="m 12.567645,12.526908 c -2.8630405,2.764401 -2.523099,6.509955 1.501197,9.089669 l 7.548903,-7.365901 C 19.352262,9.8725415 15.304218,9.8842355 12.567645,12.526908 M 32.632742,3.7017482 37.11204,8.2923335 15.383207,29.494412 C 10.370264,25.796121 5.8018168,22.027007 4.5458098,17.367178 2.9283862,11.367425 9.521041,4.3253809 15.590269,4.3997426 c 3.07703,0.037862 7.232838,2.1034719 9.802035,6.1678784 l 6.834841,-6.6691504 c 0.136277,-0.1501372 0.272533,-0.2989859 0.405597,-0.1967224" />
  <path
     inkscape:connector-curvature="0"
     style="fill:#6f6f6f;fill-opacity:1;fill-rule:evenodd;stroke:none"
     id="path2840"
     d="m 39.583885,20.417675 -4.479298,-4.590585 4.794618,-4.678386 4.4793,4.590585 -4.79462,4.678386 z" />
  <path
     inkscape:connector-curvature="0"
     style="fill:#6f6f6f;fill-opacity:1;fill-rule:evenodd;stroke:none"
     id="path2844"
     d="m 79.461731,89.042225 c 2.938307,6.902035 14.380826,-3.182248 8.454844,-7.254043 -3.680209,-2.528613 -9.936881,3.772881 -8.454844,7.254043 M 91.392343,77.799127 c 4.137652,3.422983 5.264483,7.951728 3.788167,11.637663 -2.518883,6.288995 -9.626899,9.182827 -14.202749,7.485957 -2.371605,-0.87945 -4.116968,-2.520456 -5.492045,-4.199938 -4.250495,-5.190722 -2.319234,-12.964574 4.739074,-16.57258 1.104681,-0.56472 1.911696,-0.775611 2.329015,-0.878423 2.782609,-0.685316 5.68002,-0.08555 8.838538,2.527321" />
  <path
     inkscape:connector-curvature="0"
     style="fill:#6f6f6f;fill-opacity:1;fill-rule:evenodd;stroke:none"
     id="path2848"
     d="m 33.615838,38.587879 c -3.372741,0.8124 -0.771151,4.50138 1.841601,5.969243 L 38.6199,41.471329 c -1.763656,-1.365825 -3.417115,-3.265873 -5.004062,-2.88345 m 2.864915,12.936404 c -3.918264,-3.579179 -10.83318,-8.081635 -10.327478,-12.624787 0.297321,-2.669279 3.260496,-5.30477 5.712824,-5.574331 3.168886,-0.348099 6.55492,2.337834 9.515613,4.853969 0.864224,-0.35256 1.705857,-1.504675 1.841352,-2.195007 -1.826151,-3.162134 -5.281167,-4.703096 -7.79117,-5.739809 l 3.57031,-3.483758 c 3.870861,1.487918 11.27136,6.461952 10.245189,11.111906 -0.539038,2.44219 -3.51022,4.619794 -5.829618,6.882965 l -6.937022,6.768852 z" />
  <path
     inkscape:connector-curvature="0"
     style="fill:#6f6f6f;fill-opacity:1;fill-rule:evenodd;stroke:none"
     id="path2852"
     d="m 52.004026,67.841656 -4.479298,-4.590583 5.916857,-5.773419 c 1.948141,-1.900915 4.725844,-3.996135 4.505722,-5.790836 C 57.775303,50.280977 55.600753,48.669357 54.16497,47.81051 L 43.04543,58.660488 38.566026,54.069794 52.745956,40.233619 c 5.797988,3.503325 15.370272,10.698756 10.071616,17.056636 -2.612363,3.134712 -7.480538,6.865287 -10.813546,10.551401" />
  <path
     inkscape:connector-curvature="0"
     style="fill:#6f6f6f;fill-opacity:1;fill-rule:evenodd;stroke:none"
     id="path2856"
     d="m 63.569972,69.898473 c -0.496067,1.992007 1.076367,4.541106 3.561098,5.486315 2.294985,-2.424399 4.71183,-4.847303 7.245489,-7.268884 -2.822944,-4.990071 -9.623703,-2.969634 -10.806587,1.782569 m 20.939243,2.071237 c -1.622358,0.785383 -3.239911,1.196398 -4.859592,1.754685 -0.56762,-0.369699 -0.673649,-1.066643 -1.095029,-1.122235 -5.074839,4.747474 -10.680577,12.489009 -16.19768,14.012793 -3.321785,0.917416 -6.846234,0.078 -10.344218,-3.049822 -2.548199,-2.278479 -3.997934,-4.562151 -5.054305,-7.016616 l 4.284591,-4.180722 c 0.820637,3.28712 4.987048,9.551283 8.966122,8.576487 1.170681,-0.286785 1.911589,-1.063996 3.249477,-1.976032 -0.986167,-0.909868 -2.338727,-1.407536 -3.49623,-2.562513 -4.758337,-4.748819 -3.831828,-11.463211 2.609148,-15.490126 2.491412,-1.557694 5.320751,-1.968107 7.877939,-1.314259 5.311055,1.357855 10.18106,6.659069 14.059777,12.36836" />
  <path
     inkscape:connector-curvature="0"
     style="fill:#6f6f6f;fill-opacity:1;fill-rule:evenodd;stroke:none"
     id="path2860"
     d="m 37.156063,22.78666 c -3.385487,3.293224 -5.813841,5.664141 -9.920833,9.671035 -4.226114,3.74296 -7.395646,6.924262 -10.768665,7.330794 -0.665191,0.08014 -1.824654,0.0032 -2.71988,-0.134113 -0.751729,-0.115443 -2.224371,-0.296475 -2.71235,-0.738795 C 10.542412,38.469687 10.040983,36.58022 9.7625825,35.77527 9.397045,34.718309 9.196754,33.606942 8.6923839,32.637757 c 2.7858991,0.690344 5.2145301,1.556329 8.0620841,0.09881 2.476477,-1.267559 5.156439,-4.035595 7.842747,-6.656782 2.652541,-2.588236 5.747931,-5.585488 8.089916,-7.870697 l 4.468757,4.577767 z" />
</svg>
