<?xml version="1.0" encoding="UTF-8" standalone="no"?>
<!-- Created with Inkscape (http://www.inkscape.org/) -->

<svg
   xmlns:dc="http://purl.org/dc/elements/1.1/"
   xmlns:cc="http://creativecommons.org/ns#"
   xmlns:rdf="http://www.w3.org/1999/02/22-rdf-syntax-ns#"
   xmlns:svg="http://www.w3.org/2000/svg"
   xmlns="http://www.w3.org/2000/svg"
   xmlns:xlink="http://www.w3.org/1999/xlink"
   xmlns:sodipodi="http://sodipodi.sourceforge.net/DTD/sodipodi-0.dtd"
   xmlns:inkscape="http://www.inkscape.org/namespaces/inkscape"
   width="100"
   height="100"
   id="svg2"
   version="1.1"
   inkscape:version="0.48.5 r10040"
   sodipodi:docname="grails.svg">
  <defs
     id="defs4">
    <linearGradient
       id="linearGradient4503">
      <stop
         style="stop-color:#000000;stop-opacity:1;"
         offset="0"
         id="stop4505" />
      <stop
         style="stop-color:#595959;stop-opacity:1;"
         offset="1"
         id="stop4507" />
    </linearGradient>
    <linearGradient
       inkscape:collect="always"
       id="linearGradient4425">
      <stop
         style="stop-color:#000000;stop-opacity:1;"
         offset="0"
         id="stop4427" />
      <stop
         style="stop-color:#000000;stop-opacity:0;"
         offset="1"
         id="stop4429" />
    </linearGradient>
    <linearGradient
       id="linearGradient3853">
      <stop
         style="stop-color:#adc82b;stop-opacity:1;"
         offset="0"
         id="stop3855" />
      <stop
         style="stop-color:#171a06;stop-opacity:0.8918919;"
         offset="1"
         id="stop3857" />
    </linearGradient>
    <inkscape:perspective
       sodipodi:type="inkscape:persp3d"
       inkscape:vp_x="0 : 526.18109 : 1"
       inkscape:vp_y="0 : 1000 : 0"
       inkscape:vp_z="744.09448 : 526.18109 : 1"
       inkscape:persp3d-origin="372.04724 : 350.78739 : 1"
       id="perspective10" />
    <inkscape:perspective
       id="perspective2902"
       inkscape:persp3d-origin="0.5 : 0.33333333 : 1"
       inkscape:vp_z="1 : 0.5 : 1"
       inkscape:vp_y="0 : 1000 : 0"
       inkscape:vp_x="0 : 0.5 : 1"
       sodipodi:type="inkscape:persp3d" />
    <inkscape:perspective
       id="perspective2844"
       inkscape:persp3d-origin="0.5 : 0.33333333 : 1"
       inkscape:vp_z="1 : 0.5 : 1"
       inkscape:vp_y="0 : 1000 : 0"
       inkscape:vp_x="0 : 0.5 : 1"
       sodipodi:type="inkscape:persp3d" />
    <inkscape:perspective
       id="perspective2926"
       inkscape:persp3d-origin="0.5 : 0.33333333 : 1"
       inkscape:vp_z="1 : 0.5 : 1"
       inkscape:vp_y="0 : 1000 : 0"
       inkscape:vp_x="0 : 0.5 : 1"
       sodipodi:type="inkscape:persp3d" />
    <inkscape:perspective
       id="perspective3758"
       inkscape:persp3d-origin="0.5 : 0.33333333 : 1"
       inkscape:vp_z="1 : 0.5 : 1"
       inkscape:vp_y="0 : 1000 : 0"
       inkscape:vp_x="0 : 0.5 : 1"
       sodipodi:type="inkscape:persp3d" />
    <inkscape:perspective
       id="perspective3780"
       inkscape:persp3d-origin="0.5 : 0.33333333 : 1"
       inkscape:vp_z="1 : 0.5 : 1"
       inkscape:vp_y="0 : 1000 : 0"
       inkscape:vp_x="0 : 0.5 : 1"
       sodipodi:type="inkscape:persp3d" />
    <linearGradient
       inkscape:collect="always"
       xlink:href="#linearGradient3853"
       id="linearGradient3859"
       x1="62.058979"
       y1="743.66241"
       x2="-46.185467"
       y2="553.51843"
       gradientUnits="userSpaceOnUse" />
    <filter
       id="filter4077"
       y="-0.25"
       height="1.5"
       inkscape:menu-tooltip="Darkens the edge with an inner blur and adds a flexible glow"
       inkscape:menu="Shadows and Glows"
       inkscape:label="Dark and Glow"
       color-interpolation-filters="sRGB">
      <feGaussianBlur
         id="feGaussianBlur4079"
         stdDeviation="5"
         result="result6" />
      <feComposite
         id="feComposite4081"
         in2="result6"
         result="result8"
         in="SourceGraphic"
         operator="atop" />
      <feComposite
         id="feComposite4083"
         in2="SourceAlpha"
         result="result9"
         operator="over"
         in="result8" />
      <feColorMatrix
         id="feColorMatrix4085"
         values="1 0 0 0 0 0 1 0 0 0 0 0 1 0 0 0 0 0 1 0 "
         result="result10" />
      <feBlend
         id="feBlend4087"
         in2="result6"
         in="result10"
         mode="normal" />
    </filter>
    <inkscape:perspective
       id="perspective4349"
       inkscape:persp3d-origin="0.5 : 0.33333333 : 1"
       inkscape:vp_z="1 : 0.5 : 1"
       inkscape:vp_y="0 : 1000 : 0"
       inkscape:vp_x="0 : 0.5 : 1"
       sodipodi:type="inkscape:persp3d" />
    <inkscape:perspective
       id="perspective4377"
       inkscape:persp3d-origin="0.5 : 0.33333333 : 1"
       inkscape:vp_z="1 : 0.5 : 1"
       inkscape:vp_y="0 : 1000 : 0"
       inkscape:vp_x="0 : 0.5 : 1"
       sodipodi:type="inkscape:persp3d" />
    <linearGradient
       inkscape:collect="always"
       xlink:href="#linearGradient3853-6"
       id="linearGradient3859-2"
       x1="62.058979"
       y1="743.66241"
       x2="-46.185467"
       y2="553.51843"
       gradientUnits="userSpaceOnUse" />
    <linearGradient
       id="linearGradient3853-6">
      <stop
         style="stop-color:#adc82b;stop-opacity:1;"
         offset="0"
         id="stop3855-0" />
      <stop
         style="stop-color:#171a06;stop-opacity:0.8918919;"
         offset="1"
         id="stop3857-4" />
    </linearGradient>
    <filter
       id="filter4077-9"
       y="-0.25"
       height="1.5"
       inkscape:menu-tooltip="Darkens the edge with an inner blur and adds a flexible glow"
       inkscape:menu="Shadows and Glows"
       inkscape:label="Dark and Glow"
       color-interpolation-filters="sRGB">
      <feGaussianBlur
         id="feGaussianBlur4079-4"
         stdDeviation="5"
         result="result6" />
      <feComposite
         id="feComposite4081-6"
         in2="result6"
         result="result8"
         in="SourceGraphic"
         operator="atop" />
      <feComposite
         id="feComposite4083-0"
         in2="SourceAlpha"
         result="result9"
         operator="over"
         in="result8" />
      <feColorMatrix
         id="feColorMatrix4085-3"
         values="1 0 0 0 0 0 1 0 0 0 0 0 1 0 0 0 0 0 1 0 "
         result="result10" />
      <feBlend
         id="feBlend4087-6"
         in2="result6"
         in="result10"
         mode="normal" />
    </filter>
    <linearGradient
       inkscape:collect="always"
       xlink:href="#linearGradient4425"
       id="linearGradient4431"
       x1="19.79899"
       y1="591.65332"
       x2="19.79899"
       y2="755.72461"
       gradientUnits="userSpaceOnUse" />
    <linearGradient
       inkscape:collect="always"
       xlink:href="#linearGradient3853"
       id="linearGradient4468"
       gradientUnits="userSpaceOnUse"
       x1="62.058979"
       y1="743.66241"
       x2="-46.185467"
       y2="553.51843" />
    <linearGradient
       inkscape:collect="always"
       xlink:href="#linearGradient4425"
       id="linearGradient4470"
       gradientUnits="userSpaceOnUse"
       x1="19.79899"
       y1="591.65332"
       x2="19.79899"
       y2="755.72461" />
    <linearGradient
       inkscape:collect="always"
       xlink:href="#linearGradient4425"
       id="linearGradient4477"
       gradientUnits="userSpaceOnUse"
       x1="19.79899"
       y1="569.04095"
       x2="19.79899"
       y2="761.96252" />
    <linearGradient
       inkscape:collect="always"
       xlink:href="#linearGradient3853"
       id="linearGradient4486"
       gradientUnits="userSpaceOnUse"
       x1="62.058979"
       y1="743.66241"
       x2="-46.185467"
       y2="553.51843" />
    <linearGradient
       inkscape:collect="always"
       xlink:href="#linearGradient4425"
       id="linearGradient4488"
       gradientUnits="userSpaceOnUse"
       x1="19.79899"
       y1="586.92041"
       x2="19.79899"
       y2="761.96252" />
    <linearGradient
       inkscape:collect="always"
       xlink:href="#linearGradient4503"
       id="linearGradient4509"
       x1="949.75403"
       y1="1411.6178"
       x2="949.75403"
       y2="1534.6495"
       gradientUnits="userSpaceOnUse" />
    <linearGradient
       inkscape:collect="always"
       xlink:href="#linearGradient4503"
       id="linearGradient4542"
       gradientUnits="userSpaceOnUse"
       x1="949.75403"
       y1="1411.6178"
       x2="949.75403"
       y2="1534.6495" />
    <linearGradient
       inkscape:collect="always"
       xlink:href="#linearGradient3853"
       id="linearGradient4544"
       gradientUnits="userSpaceOnUse"
       x1="62.058979"
       y1="743.66241"
       x2="-46.185467"
       y2="553.51843" />
    <linearGradient
       inkscape:collect="always"
       xlink:href="#linearGradient4425"
       id="linearGradient4546"
       gradientUnits="userSpaceOnUse"
       x1="19.79899"
       y1="586.92041"
       x2="19.79899"
       y2="761.96252" />
    <linearGradient
       inkscape:collect="always"
       xlink:href="#linearGradient3853"
       id="linearGradient8728"
       gradientUnits="userSpaceOnUse"
       x1="62.058979"
       y1="743.66241"
       x2="-46.185467"
       y2="553.51843" />
    <linearGradient
       inkscape:collect="always"
       xlink:href="#linearGradient4425"
       id="linearGradient8730"
       gradientUnits="userSpaceOnUse"
       x1="19.79899"
       y1="586.92041"
       x2="19.79899"
       y2="761.96252" />
  </defs>
  <sodipodi:namedview
     id="base"
     pagecolor="#ffffff"
     bordercolor="#666666"
     borderopacity="1.0"
     inkscape:pageopacity="0.0"
     inkscape:pageshadow="2"
     inkscape:zoom="2"
     inkscape:cx="67.837367"
     inkscape:cy="72.734855"
     inkscape:document-units="px"
     inkscape:current-layer="layer1"
     showgrid="false"
     inkscape:window-width="1920"
     inkscape:window-height="1017"
     inkscape:window-x="-8"
     inkscape:window-y="-8"
     inkscape:window-maximized="1" />
  <metadata
     id="metadata7">
    <rdf:RDF>
      <cc:Work
         rdf:about="">
        <dc:format>image/svg+xml</dc:format>
        <dc:type
           rdf:resource="http://purl.org/dc/dcmitype/StillImage" />
        <dc:title />
      </cc:Work>
    </rdf:RDF>
  </metadata>
  <g
     inkscape:label="Layer 1"
     inkscape:groupmode="layer"
     id="layer1"
     transform="translate(0.09868416,-952.70886)">
    <path
       style="color:#000000;fill:#6f6f6f;fill-opacity:1;fill-rule:evenodd;stroke:none;stroke-width:3.44105244;marker:none;visibility:visible;display:inline;overflow:visible;enable-background:accumulate"
       d="M 50.46875 2.21875 C 24.026751 2.21875 2.59375 23.461965 2.59375 49.6875 C 2.59375 75.913035 24.026751 97.1875 50.46875 97.1875 C 76.910749 97.1875 98.34375 75.913035 98.34375 49.6875 C 98.34375 23.461965 76.910749 2.21875 50.46875 2.21875 z M 21.21875 28.78125 L 49.59375 28.78125 L 77.9375 28.78125 L 77.96875 29.25 C 78.05389 30.42682 77.343806 33.93797 76.6875 35.59375 C 76.485162 36.10423 76.189309 36.90302 76.03125 37.375 C 75.873245 37.84688 75.668694 38.37567 75.5625 38.53125 C 75.456274 38.68688 75.181084 39.17032 74.9375 39.625 C 72.934062 43.36441 69.072069 47.3265 65 49.8125 C 63.617697 50.6564 61.32506 51.7657 60.09375 52.1875 C 59.560701 52.3701 58.983031 52.63165 58.8125 52.78125 C 57.966622 53.52285 56.804866 54.7747 56.40625 55.375 C 56.160876 55.7444 55.880898 56.0831 55.8125 56.125 C 55.591642 56.2601 54.790409 58.31485 54.59375 59.21875 C 54.436698 59.94045 54.401086 60.51455 54.40625 62.46875 C 54.41185 64.65615 54.44214 64.92225 54.6875 65.96875 C 54.961975 67.14005 56.036785 70.53005 56.53125 71.71875 C 57.034191 72.92785 58.714136 76.39725 59.09375 77.03125 C 59.542104 77.78005 59.570383 78.04675 59.1875 78.65625 C 58.397125 79.91405 55.673618 80.89995 51.90625 81.28125 C 50.059382 81.46825 49.002702 81.4462 47.28125 81.25 C 45.518161 81.0559 44.440882 80.8338 43.25 80.4375 C 42.686933 80.2501 42.084598 80.06695 41.9375 80.03125 C 41.502491 79.92595 40.477495 79.1724 40.1875 78.75 C 39.650379 77.9676 39.633442 78.0191 41.3125 74.625 C 42.8398 71.5376 43.012272 71.0971 43.78125 68.5 C 44.430035 66.3087 44.632855 65.4804 44.75 64.1875 C 44.89706 62.5649 44.794461 59.9869 44.5625 59 C 44.166568 57.3154 43.183403 55.51555 41.90625 54.15625 C 41.039157 53.23335 40.212561 52.66595 39.1875 52.28125 C 36.27402 51.18775 33.209664 49.44925 31 47.65625 C 29.859744 46.73104 27.700659 44.6005 26.84375 43.5625 C 24.537663 40.76916 22.499804 36.77633 21.78125 33.59375 C 21.416005 31.97599 21.146355 30.03508 21.1875 29.3125 L 21.21875 28.78125 z M 17.03125 40.40625 C 19.727028 40.39925 22.43006 40.41775 22.5625 40.46875 C 22.65704 40.50555 22.826923 40.73962 22.9375 41 C 23.327801 41.91908 25.765095 45.22593 26.90625 46.375 C 29.11134 48.59523 30.323885 49.558 33.03125 51.1875 C 34.390253 52.0055 35.849774 52.6694 37.4375 53.1875 C 38.266277 53.4579 38.242476 53.6677 37.15625 54.3125 C 36.54547 54.675 35.933747 54.9196 35.1875 55.125 C 34.599195 55.2869 34.005254 55.4792 33.875 55.5625 C 33.509144 55.7966 32.909894 56.8435 32.5625 57.8125 C 32.128375 59.0236 31.951437 60.30225 32.09375 61.46875 C 32.224701 62.54235 32.679617 64.58805 32.96875 65.46875 C 33.207989 66.19735 34.27696 68.5152 34.8125 69.4375 C 35.258545 70.2057 35.300254 70.4399 34.9375 70.875 C 34.35558 71.573 33.118251 72.1044 31.40625 72.375 C 29.935406 72.6074 28.71452 72.6522 27.53125 72.5 C 25.344735 72.2186 23.805545 71.6916 23.28125 71.0625 C 22.797226 70.482 22.812106 70.3978 23.9375 68.125 C 25.037238 65.904 25.314295 65.11415 25.75 63.28125 C 25.976677 62.32785 26.033382 61.93225 26.03125 60.71875 C 26.02745 59.01865 25.881234 58.27905 25.28125 57.15625 C 24.530615 55.75145 24.195046 55.5191 22.5625 55.0625 C 20.598643 54.5132 17.968663 52.7134 15.5625 50.3125 C 14.352433 49.1052 13.14879 47.27682 12.40625 45.4375 C 11.789942 43.91086 11.243993 40.7036 11.5625 40.5 C 11.64361 40.4481 14.335472 40.41315 17.03125 40.40625 z M 84.3125 40.40625 C 86.265857 40.41125 87.858811 40.42635 87.96875 40.46875 C 88.096567 40.51795 88.125 40.69895 88.125 41.3125 C 88.125 42.31995 87.351443 45.33287 86.875 46.1875 C 85.293548 49.02427 84.514004 49.98715 82.25 51.96875 C 80.562659 53.44555 79.020612 54.335 76.875 55.0625 C 75.536976 55.5162 75.485209 55.54815 75.125 56.03125 C 74.580309 56.76195 73.897023 58.14295 73.78125 58.78125 C 73.608099 59.73565 73.675117 61.5963 73.90625 62.75 C 74.367511 65.0528 74.893555 66.50635 76.0625 68.78125 C 76.783266 70.18385 76.805095 70.23415 76.6875 70.59375 C 76.416824 71.42165 74.875467 72.1426 72.71875 72.4375 C 70.149535 72.7889 67.511837 72.48405 65.84375 71.65625 C 65.129182 71.30185 64.46875 70.6641 64.46875 70.3125 C 64.46875 70.2445 64.938492 69.27375 65.5 68.15625 C 66.971744 65.22725 67.66749 62.8491 67.6875 60.5625 C 67.69875 59.2672 67.501611 58.48925 66.90625 57.21875 C 66.277047 55.87605 65.86288 55.56385 63.9375 54.96875 C 63.327936 54.78035 62.959034 54.5906 61.75 53.875 C 61.061078 53.4672 61.171317 53.3536 62.75 52.8125 C 64.585039 52.1835 66.883014 50.90355 69.0625 49.28125 C 70.22306 48.41745 73.049214 45.64563 74 44.4375 C 74.827898 43.3856 75.814856 41.89867 76.1875 41.15625 C 76.336259 40.85986 76.547265 40.55889 76.65625 40.5 C 76.789933 40.4278 81.056843 40.40105 84.3125 40.40625 z "
       transform="translate(-0.09868416,952.70886)"
       id="path3799" />
  </g>
</svg>
