<?xml version="1.0" encoding="UTF-8" standalone="no"?>
<!-- Created with Inkscape (http://www.inkscape.org/) -->

<svg
   xmlns:dc="http://purl.org/dc/elements/1.1/"
   xmlns:cc="http://creativecommons.org/ns#"
   xmlns:rdf="http://www.w3.org/1999/02/22-rdf-syntax-ns#"
   xmlns:svg="http://www.w3.org/2000/svg"
   xmlns="http://www.w3.org/2000/svg"
   xmlns:sodipodi="http://sodipodi.sourceforge.net/DTD/sodipodi-0.dtd"
   xmlns:inkscape="http://www.inkscape.org/namespaces/inkscape"
   width="100"
   height="100"
   id="svg3944"
   version="1.1"
   inkscape:version="0.48.5 r10040"
   sodipodi:docname="groovy.svg">
  <defs
     id="defs3946" />
  <sodipodi:namedview
     id="base"
     pagecolor="#ffffff"
     bordercolor="#666666"
     borderopacity="1.0"
     inkscape:pageopacity="0.0"
     inkscape:pageshadow="2"
     inkscape:zoom="3.4835007"
     inkscape:cx="77.388942"
     inkscape:cy="91.519364"
     inkscape:document-units="px"
     inkscape:current-layer="layer1"
     showgrid="false"
     inkscape:window-width="1920"
     inkscape:window-height="1137"
     inkscape:window-x="1912"
     inkscape:window-y="-8"
     inkscape:window-maximized="1"
     fit-margin-top="0"
     fit-margin-left="0"
     fit-margin-right="0"
     fit-margin-bottom="0" />
  <metadata
     id="metadata3949">
    <rdf:RDF>
      <cc:Work
         rdf:about="">
        <dc:format>image/svg+xml</dc:format>
        <dc:type
           rdf:resource="http://purl.org/dc/dcmitype/StillImage" />
        <dc:title />
      </cc:Work>
    </rdf:RDF>
  </metadata>
  <g
     inkscape:label="Ebene 1"
     inkscape:groupmode="layer"
     id="layer1"
     transform="translate(-35.396599,-234.1568)">
    <path
       inkscape:connector-curvature="0"
       id="path4019"
       d="m 41.238363,318.48507 c 0,-0.18968 2.549347,-4.383 5.665218,-9.31848 3.115875,-4.93549 5.333622,-9.09016 4.928339,-9.23258 -0.405287,-0.14242 -1.807625,0.11431 -3.116307,0.57053 -3.94133,1.37395 -4.751193,1.00977 -7.694976,-3.46032 -3.185181,-4.83663 -3.299239,-5.3358 -1.638547,-7.17084 1.084764,-1.19863 1.019527,-1.47804 -0.760693,-3.25826 -1.070956,-1.07096 -2.124806,-2.2697 -1.947192,-2.66387 -0.537256,-6.32999 -0.615653,-4.25494 0.971027,-9.64529 l 1.198333,-1.89003 c 5.064328,-7.9875 12.71223,-15.20213 16.115101,-15.20213 0.708606,0 2.146908,0.67531 3.196217,1.5007 1.70866,1.34403 1.943333,2.17685 2.247771,7.97716 0.186954,3.56205 0.570589,6.70711 0.852506,6.98903 0.281914,0.28192 1.176307,-0.0881 1.987539,-0.82223 1.035957,-0.93754 2.126531,-1.19171 3.66415,-0.854 1.592882,0.34986 2.501303,0.11038 3.335045,-0.87921 1.250665,-1.4844 7.509719,-11.51835 7.509719,-12.03889 0,-0.1769 1.239243,-2.29658 2.753886,-4.71039 1.514624,-2.41381 3.25908,-5.19712 3.876556,-6.18512 1.098139,-1.75709 1.270199,-1.54915 7.867703,9.50865 6.811897,11.41714 10.478122,15.63012 12.313552,14.1499 1.28088,-1.03302 8.00272,-1.09163 9.88141,-0.0862 1.0678,0.57146 1.74626,0.56397 2.33602,-0.0258 1.22394,-1.22394 4.15424,-1.01077 4.9202,0.35794 0.60348,1.07835 0.75739,1.07835 1.65234,0 0.54277,-0.65401 2.15038,-1.1891 3.57245,-1.1891 2.00979,0 2.77581,0.41747 3.4397,1.87457 l 0.85412,1.87458 c 0.65686,2.4914 1.4143,5.70167 2.19997,8.87121 -0.13366,0.0899 0.1644,2.23431 0.66234,4.76528 1.29561,6.58546 0.45063,10.97434 -2.8071,14.58024 -1.46141,1.61762 -3.83261,3.32907 -5.26936,3.80323 -1.43673,0.47416 -2.61224,1.03237 -2.61224,1.24045 0,0.20808 1.5335,2.74887 3.40778,5.6462 1.87427,2.89733 3.12638,5.26788 2.78243,5.26788 -0.56136,0 -14.2328,-5.28227 -35.491221,-13.71283 -4.19171,-1.66233 -8.008904,-3.02241 -8.482654,-3.02241 -0.883489,0 -8.512607,2.8919 -30.886264,11.70779 -12.97484,5.11249 -13.484868,5.28959 -13.484868,4.68258 z m 26.624244,-12.06334 c 6.903289,-2.68206 13.749519,-5.30308 15.213856,-5.82449 2.518616,-0.89681 3.360892,-0.67196 15.594197,4.16284 7.11247,2.81096 14.12986,5.54905 15.59419,6.08463 1.46434,0.53559 4.48219,1.69952 6.70635,2.58651 2.53611,1.01139 3.83242,1.25491 3.47667,0.6531 -3.97392,-6.72243 -4.09539,-6.83448 -6.84948,-6.31781 -3.32191,0.62319 -5.38502,-0.0161 -6.44529,-1.99724 -0.68755,-1.28469 -0.47767,-1.913 1.23673,-3.70244 2.5535,-2.66529 2.15236,-5.1173 -1.1402,-6.96955 -1.26339,-0.71072 -2.85754,-2.46756 -3.54256,-3.90408 l -1.24551,-2.61186 -2.6704,1.81218 c -3.28213,2.22731 -7.284845,2.34208 -10.626397,0.30468 l -2.463119,-1.50181 -2.861732,1.94483 c -2.865535,1.94742 -6.164593,2.19901 -9.517779,0.72586 -0.923822,-0.40587 -1.331215,-0.24812 -1.331215,0.51548 0,0.60517 -0.871881,1.49758 -1.937527,1.98311 -3.194955,1.45572 -6.312877,1.06917 -8.426788,-1.04475 l -1.927549,-1.92754 -1.555755,1.97782 c -0.855662,1.0878 -2.836097,2.78607 -4.400964,3.77392 -1.937013,1.22279 -4.334908,4.20649 -7.512168,9.3474 -2.566827,4.15322 -4.666957,7.7626 -4.666957,8.02088 0,0.25828 1.968295,-0.35949 4.373983,-1.37282 2.405692,-1.01331 10.022127,-4.0368 16.925414,-6.71885 z M 126.415,303.53645 c 5.23829,-2.94408 6.45249,-8.3905 4.13707,-18.55733 -1.93507,-8.49678 -2.90106,-11.27735 -4.04718,-11.64988 -0.79296,-0.25774 -0.91482,0.0252 -0.46805,1.08655 2.89862,6.8864 3.05973,10.34373 0.52728,11.31552 -1.73974,0.66761 -3.58525,-1.83371 -5.03669,-6.8265 -1.12392,-3.86616 -2.29924,-5.60849 -3.18547,-4.72225 -0.2122,0.2122 0.15969,1.44074 0.82644,2.73008 0.66674,1.28934 1.58103,5.17216 2.03176,8.62849 0.45073,3.45632 1.32133,7.07539 1.93468,8.04238 1.59391,2.51296 4.13104,1.90736 5.77217,-1.37781 1.62258,-3.24805 1.80596,-1.08454 0.22815,2.6917 -1.63835,3.92112 -6.50432,5.09689 -12.14138,2.93375 -0.90225,-0.34622 -1.20754,0.0121 -1.20754,1.41716 0,1.03429 -0.69109,2.75911 -1.53577,3.83292 l -1.53576,1.95242 2.10628,0.3557 c 3.63635,0.6141 8.62239,-0.18275 11.59401,-1.8529 z m -75.404711,-6.48146 c 10.935216,-3.14326 12.889313,-6.80948 9.256838,-17.36745 -0.843061,-2.45039 -1.532831,-5.08628 -1.532831,-5.85756 0,-2.62605 -1.320785,-1.4126 -2.31066,2.12291 -1.309136,4.67577 -5.246672,8.64998 -8.554567,8.63423 -2.872803,-0.0137 -3.80888,-0.53666 -4.995444,-2.79094 -2.129507,-4.04573 0.191754,-10.2546 6.112455,-16.34945 4.336533,-4.4641 6.705444,-4.86839 6.705444,-1.14438 0,5.80734 -4.003962,14.35633 -6.11329,13.05269 -1.031405,-0.63744 -0.864133,-3.45229 0.333571,-5.6136 1.018529,-1.83796 0.811589,-4.63861 -0.342746,-4.63861 -1.338525,0 -3.988458,4.87499 -4.338621,7.98159 -0.309547,2.74636 -0.116005,3.41414 1.192508,4.11444 4.585585,2.45413 10.592907,-5.03586 10.89548,-13.58459 0.158884,-4.48926 -0.710055,-5.75271 -3.478549,-5.05786 -4.029253,1.01128 -14.883593,15.01347 -14.883593,19.19996 0,3.27466 1.644618,5.57764 4.539883,6.35725 4.922577,1.32552 9.682044,-1.02948 13.054407,-6.45935 l 1.41734,-2.28208 0.0031,3.10035 c 0.0038,4.4894 -2.924755,6.85572 -12.168208,9.83093 -2.301094,0.74066 -4.279811,1.42502 -4.397138,1.52081 -0.428506,0.34983 3.927714,6.46696 4.605356,6.46696 0.38427,0 2.634063,-0.55632 4.999552,-1.23625 z m 65.884071,-5.57361 c 1.09764,-1.21289 1.29113,-2.53047 1.05583,-7.19014 -0.25595,-5.0683 -0.53605,-5.96393 -2.50939,-8.02365 -3.56558,-3.72166 -7.96993,-2.77226 -5.39191,1.16229 1.37046,2.09159 3.04226,1.73436 2.45172,-0.52389 -0.47042,-1.79887 0.40718,-1.84615 1.93672,-0.10432 2.86986,3.26821 2.14548,7.7971 -1.24714,7.7971 -2.32243,0 -3.04614,-0.99603 -4.55995,-6.27571 -0.68977,-2.40569 -1.52982,-4.37399 -1.86678,-4.37399 -1.12248,0 -1.62238,0.99063 -0.92435,1.83175 0.37915,0.45688 1.42921,3.74033 2.33347,7.29657 2.2758,8.95017 5.45509,12.01363 8.72178,8.40399 z m -43.254263,0.14216 c 0.468337,-0.31423 0.682517,-1.80034 0.48925,-3.39475 -0.311742,-2.5719 -0.486415,-2.7595 -1.87653,-2.01554 -1.997671,1.06912 -4.144493,-0.95643 -4.872688,-4.59739 -0.55243,-2.76216 -0.721471,-2.70791 3.301243,-1.05952 0.504369,0.20667 1.788043,-0.49522 2.852604,-1.55978 1.947472,-1.94747 2.588607,-4.28679 1.17486,-4.28679 -0.418379,0 -0.760695,0.3423 -0.760695,0.76068 0,1.09429 -2.081208,0.93909 -2.550149,-0.19016 -0.27356,-0.65876 -0.856292,-0.42506 -1.896884,0.76068 -0.826113,0.94137 -1.835117,1.71157 -2.242232,1.71157 -0.407118,0 -0.956921,-0.7702 -1.221779,-1.71157 -0.464137,-1.6496 -0.521029,-1.66 -1.571653,-0.28755 -0.920439,1.20241 -0.928669,1.58542 -0.05286,2.46119 0.927505,0.9275 2.689375,7.26611 2.689375,9.67546 0,2.99594 4.12588,5.35192 6.538187,3.73347 z m 13.873444,-3.97195 c 2.858728,-2.85873 3.705794,-7.14383 2.148801,-10.87024 -1.216908,-2.91246 -3.329233,-4.00251 -6.307635,-3.25497 -2.213104,0.55545 -5.583719,7.00852 -5.595664,10.71295 -0.01866,5.77341 5.472487,7.69427 9.754498,3.41226 z m -5.197772,-4.5742 c -0.836765,-0.83677 -1.510501,-2.46275 -1.497196,-3.61329 0.02195,-1.90171 0.116076,-1.97088 1.034734,-0.7607 1.135575,1.49595 3.153475,1.75508 3.926542,0.50424 0.281105,-0.45483 0.130144,-1.20792 -0.335455,-1.67352 -1.195986,-1.19599 -1.05107,-2.82435 0.251358,-2.82435 1.44785,0 3.466248,2.94559 3.466248,5.05855 0,1.55503 -3.164408,4.83045 -4.666741,4.83045 -0.361967,0 -1.342733,-0.68463 -2.17949,-1.52138 z m 20.323961,4.37398 c 3.15649,-3.43703 2.84886,-8.73176 -0.72924,-12.55143 -1.84778,-1.97254 -5.953205,-2.31264 -7.633482,-0.63235 -1.550523,1.55052 -3.098566,7.64789 -2.52345,9.9393 1.22656,4.88704 7.626087,6.79432 10.886172,3.24448 z m -6.462231,-5.55816 c -1.248931,-0.87479 -1.678054,-1.9182 -1.642432,-3.99363 0.03982,-2.32083 0.161066,-2.53018 0.697039,-1.20372 0.787483,1.94894 2.439123,2.68495 3.88788,1.73253 0.898524,-0.59068 0.856576,-0.86991 -0.259153,-1.72504 -1.487987,-1.14042 -1.778238,-2.75428 -0.495373,-2.75428 1.147114,0 5.2497,4.48772 5.2497,5.74251 0,1.22467 -2.91327,3.38581 -4.564153,3.38581 -0.650574,0 -1.94366,-0.53288 -2.873508,-1.18418 z M 85.674972,270.48833 c 1.686818,0.26973 3.589354,0.96013 4.227849,1.53422 0.991565,0.89154 1.422884,0.83077 2.956742,-0.41657 0.987708,-0.8032 2.271382,-1.46037 2.852595,-1.46037 0.581221,0 1.056766,-0.16784 1.056766,-0.37299 0,-0.70826 -10.954013,-18.64426 -11.371778,-18.62003 -0.490752,0.0284 -11.718147,18.85032 -12.063814,20.22402 -0.145067,0.57655 0.310222,0.78937 1.194182,0.55821 0.785749,-0.20548 1.872175,0.16082 2.414254,0.81399 0.879205,1.05937 1.238302,0.97497 3.325945,-0.78165 1.983335,-1.66887 2.808155,-1.89445 5.407259,-1.47883 z"
       style="fill:#6f6f6f;fill-opacity:1"
       sodipodi:nodetypes="cssssssccssssscscsssscssssssccsssssssssccssssssssssscsscssssscssssssssscssssssssssccsscsssssssssssssssssccscsccsssssssssssscsssssssscssscsccsssssscssssssssssssssscssssssssssccssss" />
  </g>
</svg>
