<?xml version="1.0" encoding="UTF-8" standalone="no"?>
<!-- Generator: Adobe Illustrator 14.0.0, SVG Export Plug-In . SVG Version: 6.00 Build 43363)  -->

<svg
   xmlns:dc="http://purl.org/dc/elements/1.1/"
   xmlns:cc="http://creativecommons.org/ns#"
   xmlns:rdf="http://www.w3.org/1999/02/22-rdf-syntax-ns#"
   xmlns:svg="http://www.w3.org/2000/svg"
   xmlns="http://www.w3.org/2000/svg"
   xmlns:sodipodi="http://sodipodi.sourceforge.net/DTD/sodipodi-0.dtd"
   xmlns:inkscape="http://www.inkscape.org/namespaces/inkscape"
   version="1.1"
   id="katman_1"
   x="0px"
   y="0px"
   width="100"
   height="100"
   viewBox="0 0 100 100"
   enable-background="new 0 0 342 322"
   xml:space="preserve"
   inkscape:version="0.48.5 r10040"
   sodipodi:docname="illustrator.svg"><metadata
   id="metadata7900"><rdf:RDF><cc:Work
       rdf:about=""><dc:format>image/svg+xml</dc:format><dc:type
         rdf:resource="http://purl.org/dc/dcmitype/StillImage" /></cc:Work></rdf:RDF></metadata><defs
   id="defs7898" /><sodipodi:namedview
   pagecolor="#ffffff"
   bordercolor="#666666"
   borderopacity="1"
   objecttolerance="10"
   gridtolerance="10"
   guidetolerance="10"
   inkscape:pageopacity="0"
   inkscape:pageshadow="2"
   inkscape:window-width="1920"
   inkscape:window-height="1017"
   id="namedview7896"
   showgrid="false"
   inkscape:zoom="1.4658385"
   inkscape:cx="-138.80176"
   inkscape:cy="114.20129"
   inkscape:window-x="-8"
   inkscape:window-y="112"
   inkscape:window-maximized="1"
   inkscape:current-layer="katman_1" />
<linearGradient
   id="SVGID_1_"
   gradientUnits="userSpaceOnUse"
   x1="162.9897"
   y1="306.05661"
   x2="162.9897"
   y2="0.00048828131">
	<stop
   offset="0"
   style="stop-color:#B2921C"
   id="stop7863" />
	<stop
   offset="1"
   style="stop-color:#FED642"
   id="stop7865" />
</linearGradient>

<linearGradient
   id="SVGID_2_"
   gradientUnits="userSpaceOnUse"
   x1="179.0625"
   y1="321.99609"
   x2="179.0625"
   y2="15.9404">
	<stop
   offset="0"
   style="stop-color:#A64F19"
   id="stop7870" />
	<stop
   offset="1"
   style="stop-color:#E5832B"
   id="stop7872" />
</linearGradient>

<linearGradient
   id="SVGID_3_"
   gradientUnits="userSpaceOnUse"
   x1="8.8705997"
   y1="322.0264"
   x2="8.8705997"
   y2="0.00048828131">
	<stop
   offset="0"
   style="stop-color:#824212"
   id="stop7877" />
	<stop
   offset="1"
   style="stop-color:#CC6633"
   id="stop7879" />
</linearGradient>

<path
   d="m 45.950534,7.8668922 c -0.03617,-0.026761 -0.08224,-0.045584 -0.142475,-0.054497 -0.142997,-0.020976 -0.28704,0.0039 -0.430046,0.0039 -0.545272,0 -1.091072,0 -1.635825,0 -0.801934,0 -1.604397,0 -2.406852,0 -0.9727,0 -1.94487,0 -2.91757,0 -1.055981,0 -2.111961,0 -3.167411,0 -1.052314,0 -2.104099,0 -3.155894,0 -0.961172,0 -1.922864,0 -2.883516,0 -0.784124,0 -1.567729,0 -2.351332,0 -0.285472,0 -0.569896,0 -0.854847,0 -0.26923,0 -0.633797,-0.05342 -0.887313,0.028331 -0.105806,0.034013 -0.15766,0.094788 -0.213189,0.1875174 -0.14876,0.2482818 -0.108943,0.5793248 -0.108943,0.8501331 0,0.226276 0,0.452032 0,0.677798 0,0.5416063 0,1.0826913 0,1.6242983 0,1.099452 0,2.198387 0,3.29784 0,0.477704 0,0.954889 0,1.431545 0,-0.0088 -0.0019,-0.02147 0,-0.02931 -0.02617,0.08803 -0.05234,0.175991 -0.0791,0.264515 -0.07646,0.256143 -0.152425,0.512797 -0.228903,0.76946 -0.122567,0.412235 -0.245665,0.82446 -0.368752,1.236695 -0.165001,0.556269 -0.331043,1.112549 -0.497092,1.668829 -0.2048,0.687747 -0.409079,1.374965 -0.613888,2.062713 -0.240421,0.807178 -0.480851,1.614357 -0.720752,2.421006 -0.272377,0.914033 -0.544752,1.828057 -0.817128,2.74261 -0.300656,1.008841 -0.600791,2.018201 -0.901457,3.027043 -0.32475,1.091591 -0.649509,2.183193 -0.975318,3.275313 -0.346226,1.161787 -0.691933,2.324102 -1.038169,3.486408 -0.363518,1.220452 -0.726505,2.440904 -1.090023,3.661367 -0.377133,1.266543 -0.754276,2.53309 -1.131928,3.799113 -0.387092,1.300594 -0.774704,2.601188 -1.161267,3.900734 -0.393894,1.32207 -0.78727,2.64414 -1.181165,3.96621 -0.395995,1.331498 -0.793034,2.662473 -1.18955,3.993447 -0.395469,1.329404 -0.791462,2.657235 -1.187454,3.98559 -0.390755,1.314213 -0.782033,2.627378 -1.173312,3.940545 -0.382898,1.285926 -0.7657959,2.571854 -1.1486926,3.858305 -0.3713742,1.246644 -0.7422239,2.493811 -1.1141214,3.740976 -0.3556601,1.194787 -0.7113201,2.390098 -1.0680271,3.585408 -0.3368034,1.130883 -0.6736069,2.261766 -1.0104092,3.393173 -0.3142799,1.05598 -0.6280361,2.110388 -0.9428394,3.165321 -0.2875655,0.967457 -0.5756556,1.933867 -0.8632212,2.901325 -0.2577098,0.865316 -0.515943,1.732204 -0.7736518,2.598568 -0.2247105,0.753224 -0.4488964,1.506972 -0.6736069,2.260195 -0.1869961,0.62856 -0.3745167,1.257119 -0.5615129,1.886202 -0.1461401,0.491325 -0.2928038,0.983172 -0.4389439,1.473973 -0.069665,0.233614 -0.1550447,0.464086 -0.1644725,0.710795 -0.00628,0.149806 -0.035092,0.343612 0.00157,0.490276 0.11576,0.464086 1.0056942,0.444182 1.4734473,0.444182 0.5547042,0 1.108884,0 1.6630638,0 1.3901634,0 2.7808511,0 4.1710155,0 1.4488293,0 2.8976593,0 4.3459663,0 0.0639,0 0.127283,0 0.190139,0 0.635888,0 1.270212,0 1.905587,0 0.384985,0 0.916121,0.02829 1.294303,-0.04714 1.57507,-0.315327 1.766772,-2.018722 2.15805,-3.230271 0.378711,-1.170168 0.646372,-2.374383 0.969034,-3.561837 0.373468,-1.375497 0.747983,-2.750471 1.122499,-4.126492 0.376093,-1.383355 0.752708,-2.76671 1.128272,-4.150062 0.329984,-1.211026 0.658939,-2.422051 0.988403,-3.633599 0.234137,-0.859031 0.468274,-1.717537 0.700844,-2.576568 0.089,-0.326328 0.178097,-0.652655 0.266611,-0.978982 h 23.899922 c 0.09224,0.3059 0.18491,0.612321 0.276051,0.918744 0.243557,0.809794 0.487654,1.619589 0.731221,2.429383 0.345707,1.150263 0.692463,2.30105 1.03765,3.451314 0.399658,1.327308 0.799317,2.655663 1.198446,3.983495 0.403855,1.343022 0.807698,2.68552 1.212072,4.028018 0.359332,1.194262 0.718135,2.388525 1.077986,3.583313 0.266083,0.883649 0.532176,1.766775 0.79722,2.650424 0.05391,0.181235 0.124665,0.362994 0.164472,0.547896 0.08274,0.386562 0.532706,0.725461 0.910887,0.711842 0.174422,-0.0052 0.350422,0 0.524324,0 0.465658,0 0.931315,0 1.397501,0 1.26026,0 2.521039,0 3.78026,0 1.433113,0 2.867275,0 4.299868,0 1.292215,0 2.583382,0 3.874018,0 0.0049,0 0.01,0 0.01412,0 0.203759,0 0.40751,0 0.611799,0 0.186988,0 0.384465,0.0057 0.571983,0.011 0.207426,0.0068 1.005694,-0.190663 1.19531,-0.760033 0.04823,-0.143521 0.113667,-0.289661 0.114716,-0.442086 0.0019,-0.129903 0.0019,-0.239901 -0.03617,-0.364564 -0.04509,-0.151379 -0.09117,-0.302757 -0.137761,-0.454136 -0.05029,-0.16971 -0.10162,-0.338898 -0.152945,-0.509132 -0.05656,-0.186473 -0.113149,-0.373993 -0.169188,-0.560466 -0.06127,-0.204281 -0.122578,-0.407516 -0.184901,-0.611798 -0.06656,-0.219995 -0.133576,-0.440515 -0.199574,-0.661034 -0.07126,-0.235711 -0.142466,-0.471943 -0.214229,-0.708178 -0.07597,-0.252471 -0.151906,-0.504419 -0.228383,-0.755842 -0.08008,-0.266614 -0.160807,-0.533228 -0.24094,-0.799841 -0.08538,-0.280758 -0.170237,-0.561514 -0.254576,-0.842795 -0.089,-0.294898 -0.178087,-0.590322 -0.267661,-0.885744 -0.0938,-0.308519 -0.185419,-0.616512 -0.279179,-0.925554 -0.09743,-0.321089 -0.19381,-0.642702 -0.291235,-0.964839 -0.100573,-0.33366 -0.20271,-0.667844 -0.302753,-1.002552 -0.104757,-0.345708 -0.208474,-0.691939 -0.313761,-1.037647 -0.108423,-0.357754 -0.215798,-0.714986 -0.32423,-1.07274 -0.111041,-0.368756 -0.22261,-0.736988 -0.33366,-1.105741 -0.114706,-0.379232 -0.229422,-0.758463 -0.343609,-1.137693 -0.117853,-0.389183 -0.234667,-0.77889 -0.35252,-1.167549 -0.11995,-0.399135 -0.24095,-0.797223 -0.36142,-1.196358 -0.122568,-0.407516 -0.245665,-0.815556 -0.368752,-1.223595 -0.126244,-0.416421 -0.251429,-0.832841 -0.377663,-1.249262 -0.127812,-0.424278 -0.256144,-0.849079 -0.384474,-1.273357 -0.13042,-0.432658 -0.260849,-0.864793 -0.391278,-1.29745 -0.132517,-0.438944 -0.265564,-0.87789 -0.39808,-1.317357 -0.134615,-0.445754 -0.26924,-0.891506 -0.403855,-1.337783 -0.136712,-0.451516 -0.272895,-0.904079 -0.409608,-1.356118 -0.137761,-0.457276 -0.275522,-0.914554 -0.414322,-1.372354 -0.13934,-0.463039 -0.279718,-0.926078 -0.419048,-1.387544 -0.140901,-0.468259 -0.282328,-0.934964 -0.423755,-1.40324 -0.141947,-0.470896 -0.284424,-0.942315 -0.4269,-1.413735 C 62.199763,61.532014 62.056247,61.057451 61.912722,60.581842 61.768678,60.103613 61.623585,59.62486 61.47954,59.146632 61.334976,58.665259 61.189353,58.184411 61.043741,57.703564 60.898128,57.219572 60.751456,56.73663 60.605843,56.253687 60.459701,55.768648 60.313039,55.28361 60.166897,54.799096 60.019715,54.313009 59.873044,53.826399 59.726912,53.340314 59.579721,52.853705 59.432529,52.367095 59.285348,51.879961 59.138157,51.392828 58.990967,50.905695 58.843785,50.41856 58.697124,49.931951 58.549932,49.445341 58.402742,48.958731 58.256079,48.472121 58.108888,47.98656 57.962227,47.500474 57.816085,47.015436 57.669423,46.53092 57.52381,46.045882 57.378187,45.562939 57.231007,45.079472 57.085383,44.59653 56.941339,44.116205 56.794677,43.635358 56.650632,43.154509 56.506069,42.675755 56.361495,42.19805 56.216931,41.719826 56.073406,41.244739 55.929891,40.770171 55.787414,40.294564 55.645467,39.823673 55.502462,39.352771 55.360516,38.88135 55.219087,38.414125 55.07871,37.946898 54.937283,37.480193 c -0.13985,-0.461992 -0.279179,-0.924512 -0.41851,-1.386503 -0.138809,-0.457796 -0.276041,-0.914553 -0.414332,-1.37183 -0.137232,-0.451512 -0.272896,-0.903025 -0.409088,-1.354547 -0.134085,-0.44523 -0.2687,-0.89046 -0.403325,-1.336209 -0.132517,-0.438416 -0.265034,-0.877362 -0.397561,-1.316309 -0.130429,-0.431614 -0.260329,-0.863218 -0.391278,-1.294832 -0.127802,-0.423753 -0.255093,-0.847505 -0.383945,-1.271787 -0.125185,-0.415891 -0.250379,-0.831263 -0.376084,-1.247164 -0.123097,-0.40699 -0.246184,-0.81451 -0.368761,-1.222021 -0.119952,-0.39809 -0.240421,-0.79618 -0.360891,-1.193741 -0.117334,-0.38866 -0.233618,-0.776791 -0.351471,-1.165981 -0.114716,-0.378702 -0.228902,-0.756364 -0.342041,-1.135075 -0.112099,-0.367703 -0.223139,-0.735406 -0.333659,-1.103119 -0.108434,-0.356705 -0.215808,-0.713411 -0.323192,-1.070125 -0.104757,-0.345177 -0.208994,-0.690365 -0.313232,-1.035552 -0.10004,-0.333131 -0.200613,-0.665742 -0.301185,-0.999402 -0.09685,-0.320573 -0.193801,-0.641137 -0.290706,-0.961172 -0.09322,-0.307478 -0.185949,-0.615466 -0.278659,-0.923463 -0.089,-0.293853 -0.177569,-0.587706 -0.266612,-0.882078 -0.0843,-0.280227 -0.168668,-0.559946 -0.252997,-0.840173 -0.08018,-0.265563 -0.161336,-0.531137 -0.24042,-0.7967 -0.07646,-0.250899 -0.151906,-0.501798 -0.227335,-0.752178 -0.07126,-0.234657 -0.141946,-0.469843 -0.21266,-0.705029 -0.06656,-0.218954 -0.132518,-0.437898 -0.199046,-0.657371 -0.06078,-0.20271 -0.122048,-0.404892 -0.182802,-0.608133 -0.05705,-0.18542 -0.112618,-0.370851 -0.168139,-0.5568 C 46.677992,10.124761 46.627209,9.9566222 46.576927,9.788484 46.530857,9.638156 46.486357,9.487819 46.439685,9.33801 46.400965,9.206013 46.361075,9.074545 46.320784,8.942547 46.286774,8.8294084 46.252164,8.7167901 46.218641,8.6041717 46.189821,8.5104607 46.162571,8.4171734 46.134341,8.3234142 46.084061,8.1573737 46.082491,7.9625141 45.95049,7.8666583 z M 27.981062,57.296282 36.182189,23.159226 c 1.178557,4.948328 8.282849,34.137056 8.282849,34.137056 H 27.981062 z"
   id="path7883"
   style="fill:#6f6f6f;fill-opacity:1"
   inkscape:connector-curvature="0" />
<path
   d="m 97.5914,15.027763 c 0,4.727807 -3.546121,8.667834 -9.192687,8.667834 -5.384657,0 -8.93025,-3.940027 -8.93025,-8.667834 0,-4.990763 3.677591,-8.7993127 9.061729,-8.7993127 5.515087,0 8.93026,3.8085497 9.061208,8.7993127 z"
   id="path7885"
   style="fill:#6f6f6f;fill-opacity:1"
   inkscape:connector-curvature="0" />
<rect
   x="79.764381"
   y="30.742804"
   width="17.404808"
   height="63.853252"
   id="rect7887"
   style="fill:#6f6f6f;fill-opacity:1" />
<linearGradient
   id="SVGID_4_"
   gradientUnits="userSpaceOnUse"
   x1="87.493202"
   y1="170.3438"
   x2="270.63281"
   y2="170.3438">
	<stop
   offset="0"
   style="stop-color:#FED642"
   id="stop7890" />
	<stop
   offset="1"
   style="stop-color:#FED642"
   id="stop7892" />
</linearGradient>

</svg>