<?xml version="1.0" encoding="UTF-8" standalone="no"?>
<!-- Created with Inkscape (http://www.inkscape.org/) -->

<svg
   xmlns:dc="http://purl.org/dc/elements/1.1/"
   xmlns:cc="http://creativecommons.org/ns#"
   xmlns:rdf="http://www.w3.org/1999/02/22-rdf-syntax-ns#"
   xmlns:svg="http://www.w3.org/2000/svg"
   xmlns="http://www.w3.org/2000/svg"
   xmlns:sodipodi="http://sodipodi.sourceforge.net/DTD/sodipodi-0.dtd"
   xmlns:inkscape="http://www.inkscape.org/namespaces/inkscape"
   id="svg2"
   version="1.1"
   inkscape:version="0.48.5 r10040"
   width="100"
   height="100"
   xml:space="preserve"
   sodipodi:docname="jenkins.svg"><metadata
     id="metadata8"><rdf:RDF><cc:Work
         rdf:about=""><dc:format>image/svg+xml</dc:format><dc:type
           rdf:resource="http://purl.org/dc/dcmitype/StillImage" /><dc:title /></cc:Work></rdf:RDF></metadata><defs
     id="defs6"><clipPath
       clipPathUnits="userSpaceOnUse"
       id="clipPath18"><path
         d="M 0,2494.84 0,0 l 1804.34,0 0,2494.84 -1804.34,0 z"
         id="path20"
         inkscape:connector-curvature="0" /></clipPath></defs><sodipodi:namedview
     pagecolor="#ffffff"
     bordercolor="#666666"
     borderopacity="1"
     objecttolerance="10"
     gridtolerance="10"
     guidetolerance="10"
     inkscape:pageopacity="0"
     inkscape:pageshadow="2"
     inkscape:window-width="1680"
     inkscape:window-height="987"
     id="namedview4"
     showgrid="false"
     inkscape:zoom="2.67"
     inkscape:cx="-23.498135"
     inkscape:cy="45.128625"
     inkscape:window-x="-8"
     inkscape:window-y="-8"
     inkscape:window-maximized="1"
     inkscape:current-layer="g10" /><g
     inkscape:groupmode="layer"
     id="layer1"
     inkscape:label="background"
     style="display:none"
     transform="translate(0,-80)"><path
       inkscape:connector-curvature="0"
       id="path26-6"
       style="fill:#231f20;fill-opacity:1;fill-rule:nonzero;stroke:none;display:inline"
       d="M 21.510285,69.510582 C 3.511457,87.926788 -7.6263961,113.354 -7.6263961,141.48362 l 0,0 c 0,28.12375 11.1378531,53.55425 29.1366811,71.96705 l 0,0 c 18.007502,18.41281 42.824476,29.77463 70.260725,29.77463 l 0,0 c 27.43696,0 52.25569,-11.36182 70.26155,-29.77463 l 0,0 c 17.99766,-18.4128 29.13789,-43.8433 29.13789,-71.96705 l 0,0 c 0,-28.12962 -11.14023,-53.556832 -29.13789,-71.973038 l 0,0 C 144.0267,51.101408 119.20797,39.739596 91.77101,39.737246 l 0,0 c -27.436249,0.0023 -52.253223,11.364162 -70.260725,29.773336 l 0,0 z M 16.954302,217.90489 C -2.174259,198.34219 -14,171.30619 -14,141.48362 l 0,0 c 0,-29.82727 11.825741,-56.860682 30.954303,-76.424675 l 0,0 C 36.078408,45.491433 62.551059,33.362858 91.77101,33.366371 l 0,0 c 29.2202,-0.0038 55.69554,12.125062 74.81636,31.692574 l 0,0 c 19.1302,19.563993 30.95748,46.599755 30.95513,76.424675 l 0,0 c 0.002,29.82257 -11.82493,56.85857 -30.95513,76.42127 l 0,0 c -19.12082,19.56646 -45.59616,31.69351 -74.81636,31.69351 l 0,0 c -29.219951,0 -55.692603,-12.12705 -74.816708,-31.69351 l 0,0" /><path
       inkscape:connector-curvature="0"
       id="path22"
       style="fill:#d33833;fill-opacity:1;fill-rule:evenodd;stroke:none;display:inline"
       d="m 194.35824,141.09204 c 0,57.95078 -45.92914,104.92969 -102.585822,104.92969 -56.655737,0 -102.58493,-46.97891 -102.58493,-104.92969 0,-57.952192 45.929193,-104.9318 102.58493,-104.9318 56.656682,0 102.585822,46.979608 102.585822,104.9318" /><path
       inkscape:connector-curvature="0"
       id="path24"
       style="fill:#ef3d3a;fill-opacity:1;fill-rule:nonzero;stroke:none;display:inline"
       d="m -6.6321341,167.07966 c 0,0 -7.4264859,-109.424481 93.4011831,-112.551302 L 79.735062,42.80427 25.02294,61.172406 9.390504,79.148959 -4.2873155,105.33355 l -7.8166755,30.48264 2.3448186,20.32137" /><path
       inkscape:connector-curvature="0"
       id="path26"
       style="fill:#231f20;fill-opacity:1;fill-rule:nonzero;stroke:none;display:inline"
       d="M 21.510285,69.510582 C 3.511457,87.926788 -7.6263961,113.354 -7.6263961,141.48362 l 0,0 c 0,28.12375 11.1378531,53.55425 29.1366811,71.96705 l 0,0 c 18.007502,18.41281 42.824476,29.77463 70.260725,29.77463 l 0,0 c 27.43696,0 52.25569,-11.36182 70.26155,-29.77463 l 0,0 c 17.99766,-18.4128 29.13789,-43.8433 29.13789,-71.96705 l 0,0 c 0,-28.12962 -11.14023,-53.556832 -29.13789,-71.973038 l 0,0 C 144.0267,51.101408 119.20797,39.739596 91.77101,39.737246 l 0,0 c -27.436249,0.0023 -52.253223,11.364162 -70.260725,29.773336 l 0,0 z M 16.954302,217.90489 C -2.174259,198.34219 -14,171.30619 -14,141.48362 l 0,0 c 0,-29.82727 11.825741,-56.860682 30.954303,-76.424675 l 0,0 C 36.078408,45.491433 62.551059,33.362858 91.77101,33.366371 l 0,0 c 29.2202,-0.0038 55.69554,12.125062 74.81636,31.692574 l 0,0 c 19.1302,19.563993 30.95748,46.599755 30.95513,76.424675 l 0,0 c 0.002,29.82257 -11.82493,56.85857 -30.95513,76.42127 l 0,0 c -19.12082,19.56646 -45.59616,31.69351 -74.81636,31.69351 l 0,0 c -29.219951,0 -55.692603,-12.12705 -74.816708,-31.69351 l 0,0" /></g><g
     id="g10"
     inkscape:groupmode="layer"
     inkscape:label="front"
     transform="matrix(1.25,0,0,-1.25,0,100)"
     style="display:inline"><path
       inkscape:connector-curvature="0"
       id="path68"
       style="fill:#6f6f6f;fill-opacity:1;fill-rule:evenodd;stroke:none"
       d="m 34.889688,-48.094823 -3.609633,14.647305 -1.795298,10.807559 -0.296879,8.022034 16.337183,0.869719 10.164107,0.0017 -0.924217,-18.308222 1.569135,-14.122174 -0.174174,-2.615222 -13.250072,-1.046089 -8.020152,1.743417" /><path
       inkscape:connector-curvature="0"
       id="path70"
       style="fill:#6f6f6f;fill-opacity:1;fill-rule:evenodd;stroke:none"
       d="m 53.422296,-13.572255 c 0,0 -0.871392,-18.132479 1.743829,-31.033888 0,0 -5.230441,-3.312973 -12.902141,-4.18437 l 14.64545,0.523044 1.743305,1.046089 -2.092177,28.592752 -0.523044,6.102879" /><path
       inkscape:connector-curvature="0"
       id="path72"
       style="fill:#6f6f6f;fill-opacity:1;fill-rule:evenodd;stroke:none"
       d="m 64.006099,-28.219168 6.799571,1.917899 12.901408,0.697323 1.918008,5.927607 -3.487135,10.2867628 -4.009658,0.523045 -5.579319,-1.7434108 -5.352828,-2.613548 -2.841699,0.521371 -2.214573,-0.870136" /><path
       inkscape:connector-curvature="0"
       id="path74"
       style="fill:#6f6f6f;fill-opacity:1;fill-rule:evenodd;stroke:none"
       d="m 63.883179,-24.730462 c 0,0 4.532702,2.091757 5.230446,1.917479 l -1.917479,9.589493 2.266351,0.871392 c 0,0 1.569131,-9.065821 1.569131,-10.11191 0,0 9.763141,-0.523043 10.635063,-0.523043 0,0 2.092173,4.010075 1.569128,8.194429 l 1.917999,-5.579208 0.174182,-3.138267 -2.789399,-4.184353 -3.138264,-0.697322 -5.230447,0.174278 -1.743305,2.266247 -6.102356,-0.871392 -1.918004,-0.697742" /><path
       inkscape:connector-curvature="0"
       id="path76"
       style="fill:#6f6f6f;fill-opacity:1;fill-rule:nonzero;stroke:none"
       d="m 57.031824,-12.353719 -3.835483,9.7637188 -4.01018,5.753487 c 0,0 0.871392,2.4410473 2.092177,2.4410473 1.220785,0 4.010179,0 4.010179,0 l 3.835484,-1.3949593 -0.348348,-6.450809 -1.743829,-10.1124848" /><path
       inkscape:connector-curvature="0"
       id="path78"
       style="fill:#6f6f6f;fill-opacity:1;fill-rule:evenodd;stroke:none"
       d="m 57.781346,-9.0391362 c 0,0 -4.882094,9.41437807 -4.882094,10.809232 0,0 0.871392,2.092177 2.092177,1.569133 1.220785,-0.523044 3.836008,-1.917481 3.836008,-1.917481 l 0,3.31244 -5.928185,1.2207853 -4.009657,-0.5230434 6.799573,-16.0401977 1.39444,-0.174697" /><path
       inkscape:connector-curvature="0"
       id="path80"
       style="fill:#6f6f6f;fill-opacity:1;fill-rule:nonzero;stroke:none"
       d="m 36.459029,13.972718 -4.83,0.525138 -4.533327,1.394959 0,-1.569134 2.214987,-2.442616 6.973854,-3.1382661" /><path
       inkscape:connector-curvature="0"
       id="path82"
       style="fill:#6f6f6f;fill-opacity:1;fill-rule:evenodd;stroke:none"
       d="m 28.665461,13.450198 c 0,0 5.405139,-2.266873 7.148551,-1.743831 l 0.173441,-2.090085 -4.88084,1.043998 -2.964195,2.092177 0.523043,0.697741" /><path
       inkscape:connector-curvature="0"
       id="path100"
       style="fill:#6f6f6f;fill-opacity:1;fill-rule:evenodd;stroke:none"
       d="m 43.487437,61.448398 c -4.751961,1.106763 -7.113193,-1.988609 -8.553604,-5.199054 -1.286166,0.311724 -0.774368,2.060792 -0.449505,2.952052 0.850576,2.339054 4.278346,5.45274 7.079091,5.03065 1.20525,-0.181496 2.836259,-1.283559 1.924018,-2.783648" /><path
       inkscape:connector-curvature="0"
       id="path102"
       style="fill:#6f6f6f;fill-opacity:1;fill-rule:evenodd;stroke:none"
       d="m 66.640672,56.036987 c 0.07478,-0.0034 0.150635,-0.0059 0.225428,-0.0089 1.073813,-2.230785 2.003265,-4.593905 3.357947,-6.563163 -0.907485,-2.113622 -6.871755,-3.984025 -6.779701,-0.188818 1.289827,0.563838 3.516428,0.115073 4.659803,0.835305 -0.661127,1.814435 -1.61516,3.358987 -1.463477,5.925562" /><path
       inkscape:connector-curvature="0"
       id="path104"
       style="fill:#6f6f6f;fill-opacity:1;fill-rule:evenodd;stroke:none"
       d="m 45.920272,55.978923 c 1.01889,-1.867786 1.350501,-3.830248 2.798811,-5.241945 0.652235,-0.635502 1.920617,-1.410127 1.291919,-3.177492 -0.146977,-0.416867 -1.220786,-1.346321 -1.840593,-1.528862 -2.264259,-0.668453 -7.540311,-0.138085 -5.753591,2.684784 1.87255,-0.08735 4.389492,-1.216076 5.789157,0.143318 -1.074855,1.718197 -2.99108,5.117461 -2.285703,7.120197" /><path
       inkscape:connector-curvature="0"
       id="path106"
       style="fill:#6f6f6f;fill-opacity:1;fill-rule:evenodd;stroke:none"
       d="m 65.790721,36.995558 c -3.409202,-2.189986 -7.210683,-4.571407 -12.796797,-4.019071 -1.193588,1.037719 -1.648636,3.346959 -0.489047,4.872156 0.603593,-1.03772 0.224386,-2.946308 1.906496,-3.23346 3.16965,-0.542396 6.85868,1.938926 9.138627,2.806133 1.413789,2.383512 -0.121866,3.260135 -1.395482,4.794224 -2.607377,3.142969 -6.104973,7.038603 -5.977871,11.743911 1.053932,0.764167 1.144942,-1.166388 1.296102,-1.517877 1.361486,-3.186385 4.787947,-7.261417 7.288622,-9.988573 0.614055,-0.671589 1.625098,-1.31598 1.737555,-1.760043 0.324285,-1.291397 -0.843671,-2.838561 -0.708205,-3.6974" /><path
       inkscape:connector-curvature="0"
       id="path108"
       style="fill:#6f6f6f;fill-opacity:1;fill-rule:evenodd;stroke:none"
       d="m 20.846368,39.301136 c -1.068578,0.609871 -1.322935,3.296226 -2.577458,3.37259 -1.792838,0.108794 -1.465936,-3.485044 -1.45877,-5.586635 -1.23407,1.12036 -1.451082,4.569837 -0.544489,6.34139 -1.033221,0.507355 -1.494598,-0.559659 -2.067698,-0.935728 0.736551,5.350746 7.827305,2.481842 6.648415,-3.191617" /><path
       inkscape:connector-curvature="0"
       id="path110"
       style="fill:#6f6f6f;fill-opacity:1;fill-rule:evenodd;stroke:none"
       d="m 67.961355,34.76739 c -1.586915,-3.02058 -3.831818,-6.347143 -8.488482,-6.443905 -0.09467,0.975477 -0.167376,2.459877 0.005,3.047255 3.559838,0.342071 5.757668,2.153897 8.483252,3.39665" /><path
       inkscape:connector-curvature="0"
       id="path112"
       style="fill:#6f6f6f;fill-opacity:1;fill-rule:evenodd;stroke:none"
       d="m 45.651741,32.809112 c 2.970056,-1.561811 8.428544,-1.729707 12.465399,-1.6115 0.21654,-0.884467 0.211309,-1.977106 0.21968,-3.055623 -5.189123,-0.258908 -11.324431,1.025166 -12.685079,4.667123" /><path
       inkscape:connector-curvature="0"
       id="path114"
       style="fill:#6f6f6f;fill-opacity:1;fill-rule:evenodd;stroke:none"
       d="m 45.08722,29.896801 c 2.053838,-5.156693 9.112843,-4.563037 15.065606,-4.42077 -0.262044,-0.669496 -0.83007,-1.46034 -1.536179,-1.746444 -1.90754,-0.776198 -7.168843,-1.365146 -9.817016,0.04132 -1.679494,0.892836 -2.758535,2.910218 -3.678726,4.092821 -0.444379,0.571165 -2.657118,2.029934 -0.03368,2.033073" /><path
       inkscape:connector-curvature="0"
       id="path118"
       style="fill:#6f6f6f;fill-opacity:1;fill-rule:evenodd;stroke:none"
       d="m 78.512208,-13.384116 c -2.698387,-0.5402 -4.594424,-3.162744 -7.226906,-2.994428 1.446741,2.039506 3.981935,2.899233 7.226906,2.994428" /><path
       inkscape:connector-curvature="0"
       id="path120"
       style="fill:#6f6f6f;fill-opacity:1;fill-rule:evenodd;stroke:none"
       d="m 79.702655,-17.607071 c -2.199404,-0.232283 -4.782718,-0.588425 -7.0135,-0.40494 1.056027,1.613068 5.124785,1.056497 7.0135,0.40494" /><path
       inkscape:connector-curvature="0"
       id="path122"
       style="fill:#6f6f6f;fill-opacity:1;fill-rule:evenodd;stroke:none"
       d="m 80.46473,-21.247929 c -2.471909,-0.05356 -5.544269,-0.0043 -7.893783,0.192846 1.389726,1.492715 6.290651,0.553905 7.893783,-0.192846" /><path
       inkscape:connector-curvature="0"
       id="path124"
       style="fill:#6f6f6f;fill-opacity:1;fill-rule:evenodd;stroke:none"
       d="m 60.891894,-31.211504 c 0.35462,-3.104372 1.585341,-6.249803 1.431049,-9.64959 -1.366717,-0.460907 -2.151808,-0.864018 -3.982983,-0.861559 -0.129194,2.889401 -0.515725,7.306458 -0.400132,10.060808 0.90068,-0.05963 2.228691,0.643397 2.952066,0.450341" /><path
       inkscape:connector-curvature="0"
       id="path130"
       style="fill:#6f6f6f;fill-opacity:1;fill-rule:evenodd;stroke:none"
       d="m 57.939828,-31.661845 c -0.115593,-2.75435 0.270938,-7.171407 0.400132,-10.060808 1.831175,-0.0024 2.616266,0.400652 3.982983,0.861559 0.154292,3.399787 -1.076429,6.545218 -1.431049,9.64959 -0.723375,0.193056 -2.051386,-0.509968 -2.952066,-0.450341 z m -28.513284,15.664548 c 1.2075,-11.100568 2.956402,-20.431991 6.164127,-30.261766 7.119313,-2.161642 15.701789,-2.350022 21.994534,-0.399433 -1.155404,5.547962 -0.650666,12.302347 -1.325918,18.222788 -0.50892,4.449956 -0.249492,8.92732 -0.947232,13.467343 -7.624939,1.586289 -18.402527,0.370838 -25.885511,-1.028932 z m 27.688444,0.959262 c -0.06433,-4.767442 0.213405,-9.470133 0.577439,-14.243541 1.830657,0.274808 3.072889,0.458293 4.773829,0.831171 -0.552334,4.595414 -0.484339,9.766386 -1.609406,13.831434 -1.30029,-0.01245 -2.445238,0.01513 -3.741862,-0.419064 z m 9.286648,0.768457 c -0.868771,0.199176 -1.880343,0.0078 -2.710414,-0.0083 0.390195,-3.886271 1.336905,-8.174659 1.670084,-12.253986 1.306038,-0.04064 2.003783,0.575348 3.078114,0.782526 0.05753,3.580814 -0.31278,8.514167 -2.037784,11.479828 z m 14.061527,-12.847483 c 2.722442,0.661127 4.434361,3.995535 3.67281,7.419854 -0.511007,2.301394 -1.42111,6.63492 -2.395017,8.107184 -0.719709,1.088979 -2.671183,2.5146928 -4.229335,1.516829 -2.534674,-1.623059 -6.999899,-2.094217 -8.84834,-4.058875 0.926837,-3.085962 1.214511,-7.32466 1.596854,-11.234833 3.166513,-0.197397 7.062669,0.871391 9.696194,-0.262778 -1.838497,-0.595539 -4.224104,-0.600245 -5.812587,-1.468185 1.298193,-0.627025 4.337606,-0.500345 6.319421,-0.01919 z M 55.14625,-10.560672 c -1.91225,4.4971348 -3.648757,9.1573538 -6.504056,12.7811088 -2.766327,-1.85523693 -5.812642,-3.60006 -6.590095,-6.968989 3.959705,-2.240303 8.576095,-4.450164 13.094151,-5.8121198 z m 4.713678,13.9260538 c -0.180977,-4.4975529 -0.69408,-10.397127 -1.892897,-13.9219748 2.859483,3.6410688 5.165583,7.8808128 7.57577,12.0087838 -1.027258,1.649053 -3.174877,3.086902 -5.682873,1.913191 z m -5.343423,1.89865 C 53.43328,5.380671 52.513768,4.0186628 51.10521,4.6076108 c -0.322718,-0.356715 -0.616147,-0.743245 -0.94514,-1.091593 3.111066,-3.74923293 4.524854,-9.068541 6.92772,-13.474561 1.289304,4.232369 1.14076,8.8692621 1.42477,13.488684 -1.77155,-0.112456 -2.754348,1.602084 -3.996055,1.733891 z m -3.435878,4.5347937 c -0.115592,-1.2840742 0.183066,-1.7040792 0.44145,-3.1759258 4.220968,-1.31964 3.483998,5.7932403 -0.44145,3.1759258 z M 46.399905,11.33553 c -1.818784,0.993785 -4.551062,2.075962 -6.900261,2.524212 -2.911893,0.557042 -2.639125,-3.9719995 -2.51553,-6.6740471 0.09702,-2.1392491 1.20954,-4.4014161 1.692728,-5.8225801 0.226792,-0.66363794 0.277893,-1.36770693 0.845239,-1.49946193 1.00278,-0.233749 4.310617,1.08897796 5.253143,1.60302493 1.993426,1.086938 3.540067,2.812985 5.233163,3.9720505 0.02197,0.5638418 0.04341,1.1271607 0.06591,1.6910024 -1.017845,0.507352 -2.194172,0.8672074 -3.688508,0.9325871 1.013659,0.509968 2.504858,0.5026456 3.428555,1.109377 0.0089,0.2259554 0.0183,0.4513882 0.02615,0.6752507 -1.686295,0.129715 -2.329117,0.8808065 -3.440586,1.4885845 z m -17.372183,3.155526 c -1.509505,-1.53252 4.233782,-3.621559 6.062397,-3.734013 -0.0102,0.969724 0.552649,1.884006 0.439252,2.579654 -2.171836,0.3813 -5.026089,0.129715 -6.501649,1.154359 z m 18.59506,-0.719708 c -0.0074,-0.149592 -0.202418,-0.0952 -0.234324,-0.217064 1.942063,-1.517875 3.384619,-1.831701 6.028084,-1.70094 1.192019,0.865115 2.249094,1.876683 3.490276,2.686878 -2.857392,-0.255245 -6.454368,-2.029935 -9.284036,-0.768874 z M 64.690759,8.5958234 c -0.08159,1.7025106 -0.528795,5.2037686 -1.58116,5.8167766 -2.208816,1.289303 -6.135309,-2.603193 -7.79859,-3.196848 0.180972,-0.520951 0.479631,-0.933633 0.502646,-1.59947 0.983846,0.2421705 2.181615,0.07636 3.034182,-0.3425927 -0.985942,-0.1103635 -2.079106,-0.1030401 -2.731339,-0.5727344 -0.23903,-0.6909414 0.05858,-1.6324204 -0.100423,-2.591683 2.340095,-0.6600823 5.012852,-1.0115681 7.971191,-1.0983941 0.57535,0.7479533 0.77149,2.1727257 0.703493,3.5849456 z m -38.2043,4.4129246 c -0.474034,0.337888 -3.680715,4.510211 -4.12002,4.337084 C 16.563943,15.057512 11.138353,11.100683 6.2899942,7.3583002 10.912608,-2.5607622 12.778621,-14.713172 13.108347,-26.426067 c 5.295404,-2.47672 9.946629,-6.047123 17.132367,-6.419949 -0.831536,5.883201 -1.590577,11.132054 -2.062573,16.670988 -1.805496,0.761081 -4.395821,-0.03451 -6.085463,0.235997 -0.01433,2.03616 2.580492,0.891634 2.796613,2.260911 0.162876,1.035681 -1.427701,1.114137 -0.909783,2.744989 1.320896,-0.480154 2.014558,-1.540731 3.423272,-1.938977 1.287212,2.81607 -0.01799,7.7986928 0.167532,10.1523928 0.03515,0.44192 0.220671,2.44831807 1.210585,2.09625707 0.876099,-0.311577 -0.05006,-5.33604607 0.04598,-7.56369107 0.08746,-2.0523738 -0.24787,-4.0382658 0.583298,-5.3266818 6.943623,0.945141 13.999594,1.556057 21.512497,1.762188 -1.652821,0.709196 -3.616328,1.380365 -5.769074,2.5937758 -1.167016,0.657885 -4.84569,2.026797 -5.182427,3.135231 -0.537322,1.766269 1.409762,2.707121 1.742784,4.221334 -3.504972,-1.91157 -4.1888,1.83227607 -5.01793,4.484633 -0.751247,2.402343 -1.178888,4.1969079 -1.363207,5.5824523 -3.019326,1.4394174 -6.247502,2.8971419 -8.846353,4.7429649 z m 35.137692,3.832346 c 4.834502,2.344285 5.705889,-8.7615154 3.810899,-12.3391372 0.292907,-1.06701 1.30029,-1.475508 1.711402,-2.434772 -2.697862,-4.832877 -5.694378,-9.344132 -8.447164,-14.1201528 2.04772,1.274711 4.972583,0.227994 7.382246,1.182131 0.880807,0.348347 1.518402,2.3647348 2.185279,3.9778038 1.834316,4.437926 3.760165,10.032982 4.616914,14.2680714 0.193525,0.9650165 0.720753,3.0676548 0.602546,3.9264938 -0.210784,1.53775 -2.297212,2.677988 -3.358466,3.62888 -1.955137,1.756383 -3.186388,3.30198 -5.225734,4.944339 -0.826936,-1.220786 -2.601627,-2.04092 -3.277922,-3.033657 z M 15.429984,59.713985 c -2.303643,-2.534677 -1.82145,-7.283912 -1.542562,-10.662779 4.163903,2.619405 9.690596,-0.207124 9.638502,-4.662417 1.987986,0.05283 0.742671,2.482891 0.383078,4.048366 -1.175176,5.11328 1.979827,10.668529 0.143052,15.344547 -3.566325,-0.270422 -6.496209,-1.727093 -8.62207,-4.067717 z m 16.48306,14.711142 C 26.697927,72.947 20.014152,69.157544 17.871135,64.472641 c 1.659411,0.241122 2.811364,1.07799 4.448335,1.181552 0.618657,0.04029 1.429167,-0.259429 2.140193,-0.08268 1.416927,0.351488 2.612763,3.528462 3.681709,4.710541 1.042007,1.154358 2.294437,1.647587 3.151549,2.699955 0.550662,0.265706 1.364833,0.247399 1.39611,1.074336 -0.238664,0.25524 -0.489987,0.449818 -0.775987,0.368742 z m 27.147669,-1.390248 c -5.412984,3.054053 -14.575203,5.35126 -20.333188,2.480793 -4.646097,-2.316559 -10.926342,-6.149431 -13.067528,-11.006417 2.000226,-4.687002 -0.592504,-8.981713 -0.757995,-13.74037 -0.08787,-2.532059 1.192174,-4.742448 1.290245,-7.498887 -0.684456,-1.129253 -2.775639,-1.268383 -4.223216,-1.190973 -0.487268,2.43843 -1.340301,5.179185 -3.85128,5.454305 -3.55304,0.38862 -6.150895,-2.551931 -6.312307,-5.624817 -0.191015,-3.613713 2.775587,-9.603093 6.980392,-9.187273 1.624313,0.160575 2.023344,1.788812 3.793117,1.772074 0.95921,-1.913818 -1.47964,-2.514797 -1.730545,-3.883603 -0.06538,-0.353578 0.202261,-1.735461 0.35792,-2.383512 0.763748,-3.155527 2.46631,-7.239456 4.142091,-9.641799 2.126908,-3.047255 6.30556,-3.506488 10.801074,-3.805146 0.802924,1.729707 3.760792,1.587439 5.688106,1.135005 -2.309764,0.914805 -4.457123,3.132513 -6.236727,5.095497 -2.044163,2.252229 -4.114842,4.66817 -4.219451,7.611864 3.862943,-5.359113 7.05435,-10.039312 14.078677,-12.396672 5.315072,-1.782536 11.522562,0.816995 15.606488,3.684847 1.694665,1.192018 2.706232,3.083345 3.910804,4.814622 4.507073,6.483133 6.610231,15.736832 6.147863,24.705997 -0.19039,3.698966 -0.182019,7.385377 -1.423202,9.874027 -1.297149,2.602144 -5.684448,4.930213 -8.252593,2.576514 -0.475974,2.530488 2.135585,4.095444 5.203243,3.184816 -2.18737,2.822876 -4.483014,6.214817 -7.591988,7.969108 z m 10.084816,-83.46071 c 4.22986,2.1027948 12.133055,5.6599138 14.784892,-0.0078 0.978614,-2.089143 2.126695,-5.620685 2.633523,-7.777249 0.716051,-3.042444 -0.776188,-9.437287 -3.903474,-10.458217 -2.762199,-0.901624 -5.985199,-0.846705 -9.312279,-0.178358 -0.391762,0.325856 -0.82798,0.893882 -1.132914,1.485968 -2.375669,0.09216 -4.600172,-0.127518 -6.476858,-1.104094 0.177836,-1.756905 -1.010519,-2.038878 -2.124606,-2.40072 -0.825889,-3.274728 1.652296,-7.551241 1.059163,-10.537302 -0.423141,-2.127324 -3.040455,-2.456268 -4.964214,-2.854253 -0.06276,-1.182184 0.08421,-2.169006 0.215496,-3.169124 -0.439881,-1.620826 -2.412802,-2.543507 -4.282161,-2.769478 -6.150478,-0.739618 -15.489067,-1.071834 -21.405012,1.055487 -1.650832,4.049312 -2.951329,8.974349 -4.326359,13.598165 -5.769807,-0.616198 -10.436355,2.489586 -14.835628,4.524333 -1.523156,0.706109 -3.63024,1.095097 -4.19926,2.307514 -0.551656,1.173816 -0.325909,3.423481 -0.46279,5.548556 -0.348347,5.427631 -0.6466395,10.66278 -2.0799382,16.2201258 -0.6435543,2.493822 -1.7652747,4.694322 -2.547801,7.09723907 C 5.0620431,2.3820318 3.7983681,5.1342898 3.4687979,7.3551365 2.9801178,10.646655 6.0795211,10.82972 8.0613881,12.256062 c 3.0636799,2.205677 5.4684809,3.425416 8.7865169,5.416123 0.982747,0.589472 3.946368,2.081716 4.283471,2.768997 0.670123,1.362529 -1.15028,3.283671 -1.636973,4.351727 -0.769868,1.68891 -1.171357,3.12362 -1.281667,4.79004 -2.783381,0.439915 -4.89334,2.096395 -6.167842,3.964187 -2.1082875,3.091192 -3.5704055,8.810158 -1.746287,13.160319 0.143052,0.342594 0.856484,1.016273 0.961721,1.542452 0.207595,1.036152 -0.390662,2.413852 -0.427851,3.515908 -0.191643,5.654105 0.956649,10.525745 4.762998,12.230861 1.54523,6.155708 7.075794,8.202382 12.286413,11.261675 1.947766,1.143374 4.094862,1.874063 6.312308,2.690015 7.954561,2.927478 20.159119,2.376185 26.760986,-2.616789 2.799328,-2.117284 7.273972,-6.587747 8.874489,-9.824348 4.227244,-8.544977 3.927017,-22.825649 0.97025,-33.220107 -0.397517,-1.395482 -0.973913,-3.446861 -1.77888,-5.123219 -0.561221,-1.170573 -2.305576,-3.512764 -2.093743,-4.546299 0.218111,-1.068581 3.977228,-3.922833 4.783241,-4.700077 1.45145,-1.400189 4.208937,-3.258566 4.432274,-5.025409 C 76.38289,11.011773 75.314314,8.4394406 74.772961,6.6250012 72.963227,0.56976886 71.197432,-5.0274322 69.145529,-10.425825" /><path
       inkscape:connector-curvature="0"
       id="path134"
       style="fill:#6f6f6f;fill-opacity:1;fill-rule:evenodd;stroke:none"
       d="m 56.212214,1.5085738 c 0,-0.52937297 -0.429419,-0.95863394 -0.959263,-0.95863394 -0.529321,0 -0.95874,0.42926097 -0.95874,0.95863394 0,0.529321 0.429419,0.959263 0.95874,0.959263 0.529844,0 0.959263,-0.429942 0.959263,-0.959263" /><path
       inkscape:connector-curvature="0"
       id="path136"
       style="fill:#6f6f6f;fill-opacity:1;fill-rule:evenodd;stroke:none"
       d="m 57.170954,-2.9373022 c 0,-0.529373 -0.42942,-0.958635 -0.959263,-0.958635 -0.529321,0 -0.95874,0.429262 -0.95874,0.958635 0,0.529373 0.429419,0.959263 0.95874,0.959263 0.529843,0 0.959263,-0.42989 0.959263,-0.959263" /><rect
       style="fill:#6f6f6f;fill-opacity:1;stroke:none"
       id="rect3048"
       width="31.412737"
       height="1.8379792"
       x="7.3597202"
       y="-0.66116607"
       transform="scale(1,-1)"
       rx="0.43835616"
       ry="0.43835616" /><rect
       style="fill:#6f6f6f;fill-opacity:1;stroke:none;display:inline"
       id="rect3048-5"
       width="27.903866"
       height="1.8379792"
       x="43.618038"
       y="-0.66116607"
       rx="0.4383561"
       ry="0.4383561"
       transform="scale(1,-1)" /><rect
       style="fill:#6f6f6f;fill-opacity:1;stroke:none;display:inline"
       id="rect3048-6"
       width="30.577291"
       height="1.8379792"
       x="7.3597202"
       y="-1.5534208"
       rx="0.4383561"
       ry="0.4383561"
       transform="scale(1,-1)" /><rect
       style="fill:#6f6f6f;fill-opacity:1;stroke:none;display:inline"
       id="rect3048-5-9"
       width="25.230446"
       height="1.8379792"
       x="46.291458"
       y="-1.5534179"
       rx="0.4383561"
       ry="0.4383561"
       transform="scale(1,-1)" /></g></svg>