<?xml version="1.0" encoding="UTF-8" standalone="no"?>
<!-- Created with Inkscape (http://www.inkscape.org/) -->

<svg
   xmlns:dc="http://purl.org/dc/elements/1.1/"
   xmlns:cc="http://creativecommons.org/ns#"
   xmlns:rdf="http://www.w3.org/1999/02/22-rdf-syntax-ns#"
   xmlns:svg="http://www.w3.org/2000/svg"
   xmlns="http://www.w3.org/2000/svg"
   xmlns:sodipodi="http://sodipodi.sourceforge.net/DTD/sodipodi-0.dtd"
   xmlns:inkscape="http://www.inkscape.org/namespaces/inkscape"
   width="100"
   height="100"
   id="svg4399"
   version="1.1"
   inkscape:version="0.48.5 r10040"
   sodipodi:docname="New document 6">
  <defs
     id="defs4401" />
  <sodipodi:namedview
     id="base"
     pagecolor="#ffffff"
     bordercolor="#666666"
     borderopacity="1.0"
     inkscape:pageopacity="0.0"
     inkscape:pageshadow="2"
     inkscape:zoom="3.959798"
     inkscape:cx="160.4809"
     inkscape:cy="76.780482"
     inkscape:document-units="px"
     inkscape:current-layer="layer1"
     showgrid="false"
     inkscape:window-width="1920"
     inkscape:window-height="1137"
     inkscape:window-x="1912"
     inkscape:window-y="-8"
     inkscape:window-maximized="1" />
  <metadata
     id="metadata4404">
    <rdf:RDF>
      <cc:Work
         rdf:about="">
        <dc:format>image/svg+xml</dc:format>
        <dc:type
           rdf:resource="http://purl.org/dc/dcmitype/StillImage" />
        <dc:title></dc:title>
      </cc:Work>
    </rdf:RDF>
  </metadata>
  <g
     inkscape:label="Layer 1"
     inkscape:groupmode="layer"
     id="layer1"
     transform="translate(0,-952.36218)">
    <path
       style="fill:#6f6f6f;fill-opacity:1;fill-rule:nonzero"
       inkscape:connector-curvature="0"
       d="m 110.75105,1067.4118 c 0,0 8.81615,0.114 14.4205,0.114 -4.2574,0 -11.28854,-0.079 -14.42776,-0.1165 0.003,0 0.005,0 0.008,0 z"
       id="path4476" />
    <path
       style="fill:#6f6f6f;fill-opacity:1;fill-rule:nonzero"
       inkscape:connector-curvature="0"
       d="m 7.7992919,976.58402 c -8.64400056,12.42413 -7.56793396,28.58788 -0.9646639,41.78878 0.1569921,0.3165 0.3215548,0.628 0.4835974,0.9394 0.1038317,0.1974 0.2012854,0.4 0.3088921,0.595 0.060793,0.1163 0.1291154,0.2304 0.1924284,0.3418 0.112647,0.2101 0.227867,0.4101 0.34433,0.6152 0.205091,0.3621 0.415244,0.7216 0.630447,1.0811 0.119004,0.1976 0.2367427,0.395 0.3595417,0.5925 0.2379981,0.3849 0.4823332,0.7646 0.7317173,1.1444 0.103832,0.1621 0.2050821,0.3241 0.3114231,0.4811 0.34435,0.514 0.69628,1.0255 1.059577,1.5293 0.009,0.014 0.01893,0.028 0.03033,0.04 0.05704,0.081 0.120301,0.1595 0.178501,0.2405 0.313964,0.433 0.638049,0.8609 0.96593,1.2837 0.1203,0.1544 0.241793,0.3089 0.363328,0.4634 0.292444,0.3671 0.589939,0.7317 0.892505,1.0963 0.112647,0.1366 0.2266,0.2734 0.340533,0.4076 0.406377,0.4785 0.820335,0.9545 1.243139,1.4204 0.0078,0.01 0.01777,0.018 0.02527,0.025 0.01776,0.02 0.03293,0.033 0.04809,0.053 0.412704,0.4506 0.835528,0.8911 1.263466,1.3318 0.132911,0.1367 0.268384,0.2734 0.405101,0.4076 0.331677,0.3342 0.668415,0.6634 1.008968,0.99 0.137983,0.1317 0.274711,0.2659 0.412704,0.3924 0.454466,0.4279 0.914013,0.8482 1.382417,1.2584 0.0078,0.01 0.01387,0.012 0.02152,0.018 0.07973,0.07 0.162042,0.1368 0.240538,0.2051 0.412703,0.357 0.832998,0.7115 1.255792,1.061 0.172164,0.1392 0.34688,0.2759 0.520309,0.4152 0.345605,0.276 0.695005,0.5494 1.046925,0.8178 0.186103,0.1418 0.372195,0.2836 0.559563,0.4253 0.388643,0.2862 0.779827,0.5672 1.174796,0.8432 0.144309,0.1038 0.283577,0.2051 0.427886,0.3038 0.04045,0.028 0.07726,0.056 0.117708,0.084 0.374735,0.2583 0.758307,0.5063 1.140676,0.7545 0.164573,0.1089 0.327881,0.2228 0.493729,0.3292 0.587398,0.3722 1.183715,0.7393 1.786254,1.0938 0.163298,0.093 0.329147,0.1848 0.493709,0.2784 0.44309,0.2558 0.888709,0.5064 1.340624,0.752 0.244334,0.1317 0.494995,0.2558 0.74186,0.3824 0.319014,0.1671 0.635507,0.3367 0.959593,0.4987 0.07337,0.035 0.14939,0.071 0.221539,0.1063 0.130402,0.063 0.262058,0.1241 0.392449,0.1899 0.502576,0.2406 1.008968,0.476 1.520452,0.704 0.108893,0.048 0.213949,0.096 0.321555,0.1442 0.586133,0.2558 1.177285,0.5013 1.773602,0.7369 0.143054,0.058 0.287373,0.1138 0.431692,0.1695 0.551951,0.2127 1.111534,0.4229 1.673628,0.6204 0.07092,0.025 0.139268,0.048 0.210152,0.074 0.616529,0.2152 1.239406,0.4153 1.866005,0.6102 0.14938,0.044 0.300025,0.091 0.45067,0.1342 0.638049,0.1924 1.268548,0.4229 1.926778,0.5444 41.804401,7.6236 53.947486,-25.122 53.947486,-25.122 -10.198573,13.2869 -28.301714,16.7912 -45.453861,12.8897 -0.649436,-0.1468 -1.279852,-0.3494 -1.914125,-0.5368 -0.160788,-0.048 -0.319024,-0.096 -0.477271,-0.1443 -0.61905,-0.1899 -1.23308,-0.3899 -1.84319,-0.6001 -0.08361,-0.03 -0.168379,-0.061 -0.253201,-0.091 -0.54689,-0.1924 -1.087474,-0.395 -1.625508,-0.6026 -0.15192,-0.061 -0.303841,-0.119 -0.455741,-0.1798 -0.589939,-0.2329 -1.176041,-0.476 -1.754624,-0.7292 -0.119004,-0.051 -0.232936,-0.1038 -0.350675,-0.1544 -0.497526,-0.2253 -0.98998,-0.4532 -1.479903,-0.6887 -0.141778,-0.068 -0.283577,-0.1342 -0.427896,-0.205 -0.384754,-0.1877 -0.76536,-0.3879 -1.144928,-0.5829 -0.254083,-0.1338 -0.512314,-0.2603 -0.764323,-0.4003 -0.463572,-0.2478 -0.918846,-0.5061 -1.372047,-0.7695 -0.153487,-0.086 -0.309048,-0.169 -0.463572,-0.2582 -0.602539,-0.3547 -1.197819,-0.7218 -1.786876,-1.0941 -0.16282,-0.1037 -0.321492,-0.2147 -0.482239,-0.3215 -0.427274,-0.2759 -0.852473,-0.5569 -1.271451,-0.8452 -0.138968,-0.094 -0.27275,-0.195 -0.409644,-0.2883 -0.404458,-0.2863 -0.804768,-0.5756 -1.201967,-0.8691 -0.18045,-0.1338 -0.35779,-0.2686 -0.533055,-0.4024 -0.364013,-0.279 -0.725951,-0.56 -1.084778,-0.8483 -0.162043,-0.1291 -0.324085,-0.2584 -0.483598,-0.3875 -0.455741,-0.3747 -0.906422,-0.752 -1.350787,-1.1393 -0.04679,-0.04 -0.09748,-0.081 -0.148114,-0.124 -0.481057,-0.4228 -0.953267,-0.8558 -1.420375,-1.2913 -0.135463,-0.1291 -0.267129,-0.2557 -0.400051,-0.3849 -0.345604,-0.3291 -0.686138,-0.6608 -1.020365,-1.0001 -0.134187,-0.1342 -0.268384,-0.2658 -0.400041,-0.4 -0.425355,-0.4355 -0.84313,-0.876 -1.252058,-1.3241 -0.02022,-0.023 -0.04174,-0.044 -0.06197,-0.066 -0.432967,-0.4735 -0.855792,-0.9571 -1.269792,-1.4457 -0.112646,-0.1342 -0.221539,-0.2633 -0.332952,-0.395 -0.308892,-0.3722 -0.615253,-0.7494 -0.914024,-1.1293 -0.112004,-0.1369 -0.224007,-0.2769 -0.334974,-0.4179 -0.359864,-0.4667 -0.711432,-0.9323 -1.05574,-1.4053 -9.522713,-12.9893 -12.9437049,-30.90463 -5.332628,-45.61758"
       id="path4512" />
    <path
       style="fill:#6f6f6f;fill-opacity:1;fill-rule:nonzero"
       inkscape:connector-curvature="0"
       d="m 34.631993,966.11685 c -6.251267,8.99588 -5.91204,21.03805 -1.035559,30.55216 0.817815,1.59512 1.73689,3.14217 2.764836,4.61559 0.936798,1.3419 1.974898,2.9396 3.218037,4.0182 0.450691,0.4962 0.921625,0.9798 1.40264,1.4558 0.121462,0.1241 0.24559,0.243 0.369665,0.3646 0.467139,0.4532 0.941869,0.8988 1.433027,1.3318 0.02022,0.015 0.03799,0.035 0.05821,0.051 0.0052,0 0.01037,0.01 0.01387,0.014 0.543094,0.476 1.10386,0.9343 1.673628,1.3849 0.126647,0.096 0.251925,0.1975 0.379786,0.2963 0.57095,0.438 1.153328,0.8684 1.750786,1.2786 0.01776,0.014 0.03293,0.025 0.05069,0.038 0.263323,0.1824 0.531707,0.3519 0.798816,0.5267 0.127819,0.084 0.249405,0.1721 0.378531,0.2506 0.426631,0.2735 0.858302,0.5393 1.297586,0.7951 0.06209,0.038 0.122768,0.071 0.183561,0.1063 0.378532,0.2177 0.762104,0.4329 1.147003,0.6406 0.134187,0.076 0.270904,0.1417 0.407632,0.2127 0.265853,0.1392 0.531707,0.281 0.802611,0.4152 0.04045,0.02 0.08231,0.038 0.121462,0.056 0.550696,0.2709 1.106453,0.5317 1.673628,0.7798 0.121462,0.053 0.246865,0.1016 0.369654,0.1519 0.453211,0.1925 0.911494,0.3798 1.372255,0.557 0.194959,0.074 0.392438,0.1444 0.587398,0.2152 0.417774,0.1545 0.836803,0.2963 1.259628,0.4381 0.191153,0.061 0.378532,0.124 0.569685,0.1823 0.601315,0.1873 1.195019,0.4228 1.821722,0.5266 32.276815,5.3474 39.728177,-19.50313 39.728177,-19.50313 -6.717115,9.67443 -19.725117,14.28973 -33.606337,10.68703 -0.61653,-0.1621 -1.224161,-0.3394 -1.828048,-0.5293 -0.184827,-0.056 -0.365869,-0.1164 -0.549431,-0.1772 -0.429151,-0.1393 -0.855782,-0.2861 -1.278607,-0.4405 -0.193684,-0.071 -0.387367,-0.1418 -0.577276,-0.2152 -0.463343,-0.1773 -0.921626,-0.3621 -1.376092,-0.5546 -0.124055,-0.053 -0.249405,-0.1016 -0.37094,-0.157 -0.569674,-0.248 -1.130513,-0.5089 -1.683688,-0.7823 -0.284842,-0.1392 -0.564623,-0.2861 -0.844394,-0.4304 -0.162043,-0.083 -0.325351,-0.1671 -0.487404,-0.2507 -0.359532,-0.195 -0.716524,-0.3975 -1.068496,-0.6025 -0.08348,-0.048 -0.170899,-0.093 -0.255721,-0.1444 -0.436763,-0.2557 -0.86719,-0.519 -1.293852,-0.7899 -0.131657,-0.084 -0.258252,-0.1748 -0.389919,-0.2608 -0.281046,-0.1824 -0.562083,-0.3672 -0.838058,-0.5546 -0.59501,-0.4101 -1.173552,-0.8405 -1.74446,-1.2761 -0.131657,-0.1038 -0.263313,-0.205 -0.392439,-0.3088 -6.076209,-4.79745 -10.892374,-11.35278 -13.182231,-18.78652 -2.399786,-7.7096 -1.882287,-16.36397 2.275338,-23.38703"
       id="path4514" />
    <path
       style="fill:#6f6f6f;fill-opacity:1;fill-rule:nonzero"
       inkscape:connector-curvature="0"
       d="m 57.199732,958.29628 c -3.685238,5.42337 -4.04728,12.15864 -1.490066,18.14877 2.696492,6.35767 8.22243,11.34558 14.671469,13.71011 0.265853,0.0988 0.531707,0.18735 0.801356,0.2785 0.117708,0.0355 0.234192,0.076 0.353206,0.11135 0.379787,0.11901 0.757043,0.25826 1.149492,0.33169 17.822094,3.44339 22.65589,-9.14532 23.942897,-10.99816 -4.234575,6.09685 -11.350761,7.56026 -20.081876,5.44111 -0.689653,-0.16801 -1.447753,-0.41691 -2.112517,-0.65232 -0.852473,-0.30386 -1.692502,-0.65025 -2.508678,-1.04226 -1.550424,-0.74462 -3.028253,-1.64894 -4.398228,-2.68394 -7.813305,-5.92791 -12.666805,-17.23719 -7.568556,-26.44743"
       id="path4516" />
  </g>
</svg>
