<?xml version="1.0" encoding="UTF-8" standalone="no"?>
<svg
   xmlns:dc="http://purl.org/dc/elements/1.1/"
   xmlns:cc="http://creativecommons.org/ns#"
   xmlns:rdf="http://www.w3.org/1999/02/22-rdf-syntax-ns#"
   xmlns:svg="http://www.w3.org/2000/svg"
   xmlns="http://www.w3.org/2000/svg"
   xmlns:sodipodi="http://sodipodi.sourceforge.net/DTD/sodipodi-0.dtd"
   xmlns:inkscape="http://www.inkscape.org/namespaces/inkscape"
   width="100"
   height="100"
   viewBox="43 -188 65.069444 65.069444"
   id="svg2"
   sodipodi:version="0.32"
   inkscape:version="0.48.5 r10040"
   sodipodi:docname="lua.svg"
   inkscape:output_extension="org.inkscape.output.svg.inkscape"
   version="1.0">
  <metadata
     id="metadata31">
    <rdf:RDF>
      <cc:Work
         rdf:about="">
        <dc:format>image/svg+xml</dc:format>
        <dc:type
           rdf:resource="http://purl.org/dc/dcmitype/StillImage" />
      </cc:Work>
    </rdf:RDF>
  </metadata>
  <defs
     id="defs29">
    <inkscape:perspective
       sodipodi:type="inkscape:persp3d"
       inkscape:vp_x="0 : 512 : 1"
       inkscape:vp_y="0 : 1000 : 0"
       inkscape:vp_z="1024 : 512 : 1"
       inkscape:persp3d-origin="512 : 341.33333 : 1"
       id="perspective33" />
  </defs>
  <sodipodi:namedview
     inkscape:window-height="1017"
     inkscape:window-width="1920"
     inkscape:pageshadow="2"
     inkscape:pageopacity="0.0"
     guidetolerance="10.0"
     gridtolerance="10.0"
     objecttolerance="10.0"
     borderopacity="1.0"
     bordercolor="#666666"
     pagecolor="#ffffff"
     id="base"
     showgrid="false"
     inkscape:zoom="2.8284271"
     inkscape:cx="129.35636"
     inkscape:cy="15.287751"
     inkscape:window-x="-8"
     inkscape:window-y="-8"
     inkscape:current-layer="svg2"
     inkscape:window-maximized="1" />
  <title
     id="title4">generated by pstoedit</title>
  <!-- generated by pstoedit version:3.50 -->
  <g
     style="fill:#6f6f6f;fill-opacity:1;fill-rule:nonzero;stroke-width:0;stroke-linecap:butt;stroke-linejoin:miter;stroke-miterlimit:10"
     id="g8"
     stroke-miterlimit="10"
     transform="matrix(0.06625166,0,0,0.06625166,41.672024,-173.83919)">
    <path
       style="fill:#6f6f6f;fill-opacity:1"
       d="M 50.09375 13.40625 C 29.735979 13.40625 13.21875 29.923479 13.21875 50.28125 C 13.21875 70.639021 29.735979 87.125 50.09375 87.125 C 70.451521 87.125 86.9375 70.639021 86.9375 50.28125 C 86.9375 29.923479 70.451521 13.40625 50.09375 13.40625 z M 65.34375 24.21875 C 71.306351 24.21875 76.15625 29.037401 76.15625 35 C 76.15625 40.962691 71.306351 45.8125 65.34375 45.8125 C 59.381051 45.8125 54.5625 40.962691 54.5625 35 C 54.5625 29.037401 59.381051 24.21875 65.34375 24.21875 z "
       transform="matrix(9.8215568,0,0,9.8215568,20.044419,-213.74272)"
       id="path10" />
  </g>
  <g
     style="fill:#6f6f6f;fill-opacity:1;fill-rule:nonzero;stroke-width:0;stroke-linecap:butt;stroke-linejoin:miter;stroke-miterlimit:10"
     id="g16"
     stroke-miterlimit="10"
     transform="matrix(0.06625166,0,0,0.06625166,41.672024,-173.83919)">
    <path
       inkscape:connector-curvature="0"
       id="path18"
       d="m 980.074,-82.035 c 0,-58.563 -47.476,-106.039 -106.039,-106.039 -58.562,0 -106.039,47.476 -106.039,106.039 0,58.562 47.477,106.039 106.039,106.039 58.563,0 106.039,-47.477 106.039,-106.039"
       style="fill:#6f6f6f;fill-opacity:1" />
  </g>
  <g
     style="fill:none;stroke:#6f6f6f;stroke-width:10.86120033;stroke-linecap:butt;stroke-linejoin:miter;stroke-miterlimit:10;stroke-opacity:1;stroke-dasharray:40.8475;stroke-dashoffset:0"
     id="g24"
     stroke-miterlimit="10"
     transform="matrix(0.06625166,0,0,0.06625166,41.672024,-173.83919)">
    <path
       inkscape:connector-curvature="0"
       id="path26"
       d="M 929.059,67.5 C 962.59,133.312 980.074,206.133 980.074,280 980.074,538.512 770.512,748.074 512,748.074 253.488,748.074 43.9258,538.512 43.9258,280 43.9258,21.488 253.488,-188.074 512,-188.074 c 90.488,0 179.039,26.23 254.93,75.511"
       style="fill:none;stroke:#6f6f6f;stroke-opacity:1" />
  </g>
</svg>
