<?xml version="1.0" encoding="UTF-8" standalone="no"?>
<svg
   xmlns:dc="http://purl.org/dc/elements/1.1/"
   xmlns:cc="http://creativecommons.org/ns#"
   xmlns:rdf="http://www.w3.org/1999/02/22-rdf-syntax-ns#"
   xmlns:svg="http://www.w3.org/2000/svg"
   xmlns="http://www.w3.org/2000/svg"
   xmlns:xlink="http://www.w3.org/1999/xlink"
   xmlns:sodipodi="http://sodipodi.sourceforge.net/DTD/sodipodi-0.dtd"
   xmlns:inkscape="http://www.inkscape.org/namespaces/inkscape"
   width="100"
   height="100"
   id="svg5600"
   version="1.1"
   inkscape:version="0.48.5 r10040"
   sodipodi:docname="mercurial.svg">
  <metadata
     id="metadata5631">
    <rdf:RDF>
      <cc:Work
         rdf:about="">
        <dc:format>image/svg+xml</dc:format>
        <dc:type
           rdf:resource="http://purl.org/dc/dcmitype/StillImage" />
      </cc:Work>
    </rdf:RDF>
  </metadata>
  <sodipodi:namedview
     pagecolor="#ffffff"
     bordercolor="#666666"
     borderopacity="1"
     objecttolerance="10"
     gridtolerance="10"
     guidetolerance="10"
     inkscape:pageopacity="0"
     inkscape:pageshadow="2"
     inkscape:window-width="1680"
     inkscape:window-height="987"
     id="namedview5629"
     showgrid="false"
     inkscape:zoom="3.9333333"
     inkscape:cx="25.722815"
     inkscape:cy="67.235536"
     inkscape:window-x="-8"
     inkscape:window-y="-8"
     inkscape:window-maximized="1"
     inkscape:current-layer="svg5600" />
  <title
     id="title5602">Mercurial</title>
  <defs
     id="defs5604">
    <g
       id="hg">
      <path
         d="M 85.685,67.399 C 100.47,42.815 82.562,2.944 49.818,6.995 20.233,10.652 19.757,41.792 45.83,49.189 c 22.563,6.408 4.661,20.72 5.184,30.25 0.526,9.529 19.616,12.986 34.671,-12.04"
         id="path5607"
         inkscape:connector-curvature="0" />
      <circle
         cx="31.579"
         cy="70.616997"
         r="12.838"
         id="circle5609"
         d="m 44.417001,70.616997 c 0,7.090232 -5.747769,12.838 -12.838001,12.838 -7.090231,0 -12.838,-5.747768 -12.838,-12.838 0,-7.090232 5.747769,-12.838001 12.838,-12.838001 7.090232,0 12.838001,5.747769 12.838001,12.838001 z"
         sodipodi:cx="31.579"
         sodipodi:cy="70.616997"
         sodipodi:rx="12.838"
         sodipodi:ry="12.838" />
      <circle
         cx="16.913"
         cy="43.476002"
         r="8.3999996"
         id="circle5611"
         d="m 25.313,43.476002 c 0,4.639191 -3.760808,8.399999 -8.4,8.399999 -4.639192,0 -8.3999995,-3.760808 -8.3999995,-8.399999 0,-4.639192 3.7608075,-8.4 8.3999995,-8.4 4.639192,0 8.4,3.760808 8.4,8.4 z"
         sodipodi:cx="16.913"
         sodipodi:cy="43.476002"
         sodipodi:rx="8.3999996"
         sodipodi:ry="8.3999996" />
    </g>
  </defs>
  <use
     xlink:href="#hg"
     style="fill:#6f6f6f;fill-opacity:1"
     id="use5615"
     x="0"
     y="0"
     width="100"
     height="120"
     transform="matrix(1.2005276,0,0,1.2005276,-9.5884478,-5.8368012)" />
  <path
     style="fill:#ffffff"
     d="m 61.311113,93.704944 c -0.116451,1.385409 1.474248,1.656728 3.61599,1.336187 2.745606,-0.411781 5.067427,-0.720317 8.227215,-2.303812 C 77.4366,90.590775 81.770505,87.521026 84.9435,83.379206 94.414462,71.023375 97.767536,56.404551 97.251309,54.302427 97.078433,56.03839 94.792628,65.155196 89.56433,73.372808 82.848579,83.930248 77.979239,89.552319 66.749503,92.278717 63.62333,93.03745 61.464781,91.881342 61.311113,93.704944 M 36.403767,45.659828 c 1.278562,1.085277 3.899313,2.530713 9.05558,4.222256 6.228337,2.042097 9.26087,3.812876 10.531028,4.660448 1.345791,0.901596 2.198166,2.91248 2.282203,1.126095 0.08884,-1.787586 -1.013245,-3.324261 -3.471926,-4.14062 -1.663931,-0.552242 -4.462361,-1.86682 -7.14554,-2.396253 -1.723958,-0.34095 -4.528391,-1.015646 -6.933047,-1.75277 -1.31818,-0.404578 -2.66157,-1.11409 -4.318298,-1.719156 m -7.179155,45.593638 c 1.52587,-0.32054 10.401371,-2.619551 12.485487,-9.918759 0.649485,-2.2762 0.765936,-1.818799 0.582256,-0.585857 -0.936412,6.294366 -6.885026,10.936806 -11.947651,11.109682 -1.027652,0.105647 -2.375844,-0.34215 -1.120092,-0.605066 M 11.467607,53.816213 c 0.399776,-0.360158 2.423866,-0.212493 4.251069,-1.195726 1.826002,-0.982031 3.995356,-3.134577 4.383126,-6.194722 0.2281,-1.79719 0.29653,-1.345792 0.387771,-0.367362 -0.283325,5.086636 -4.961781,7.897071 -7.636557,8.268034 -0.722717,0.09964 -1.992877,0.03842 -1.385409,-0.510224"
     id="path5621"
     inkscape:connector-curvature="0" />
</svg>
