<?xml version="1.0" encoding="UTF-8" standalone="no"?>
<!-- Generator: Adobe Illustrator 14.0.0, SVG Export Plug-In . SVG Version: 6.00 Build 43363)  -->

<svg
   xmlns:dc="http://purl.org/dc/elements/1.1/"
   xmlns:cc="http://creativecommons.org/ns#"
   xmlns:rdf="http://www.w3.org/1999/02/22-rdf-syntax-ns#"
   xmlns:svg="http://www.w3.org/2000/svg"
   xmlns="http://www.w3.org/2000/svg"
   xmlns:sodipodi="http://sodipodi.sourceforge.net/DTD/sodipodi-0.dtd"
   xmlns:inkscape="http://www.inkscape.org/namespaces/inkscape"
   version="1.1"
   id="svg2"
   x="0px"
   y="0px"
   width="100"
   height="100"
   viewBox="304 -1.725 99.999997 100"
   enable-background="new 304 -1.725 190.253 88.297"
   xml:space="preserve"
   inkscape:version="0.48.5 r10040"
   sodipodi:docname="opengl.svg"><metadata
   id="metadata7024"><rdf:RDF><cc:Work
       rdf:about=""><dc:format>image/svg+xml</dc:format><dc:type
         rdf:resource="http://purl.org/dc/dcmitype/StillImage" /></cc:Work></rdf:RDF></metadata><defs
   id="defs7022" /><sodipodi:namedview
   pagecolor="#ffffff"
   bordercolor="#666666"
   borderopacity="1"
   objecttolerance="10"
   gridtolerance="10"
   guidetolerance="10"
   inkscape:pageopacity="0"
   inkscape:pageshadow="2"
   inkscape:window-width="1920"
   inkscape:window-height="1137"
   id="namedview7020"
   showgrid="false"
   inkscape:zoom="1.5032614"
   inkscape:cx="-38.706648"
   inkscape:cy="139.51018"
   inkscape:window-x="1912"
   inkscape:window-y="-8"
   inkscape:window-maximized="1"
   inkscape:current-layer="svg2" />
























<path
   id="path106"
   d="m 324.97778,57.267567 c -4.98922,0 -7.44179,-3.039407 -8.39887,-6.212997 1.08124,5.152908 6.91731,10.196688 25.32914,12.447152 17.39628,2.125748 28.73212,-3.203098 32.55769,-5.684066 0,0 2.58341,-1.136924 1.03225,0.620799 0,0 -10.95501,10.127091 -32.45301,10.230094 -21.49745,0.104672 -38.55077,-10.747333 -38.44777,-21.704012 -0.10355,-10.955008 16.95032,-21.806451 38.44721,-21.704005 21.498,0.104115 32.45301,10.232314 32.45301,10.232314 1.55061,1.757167 -1.03225,0.620242 -1.03225,0.620242 -3.82501,-2.480967 -15.11297,-7.366062 -32.55769,-5.685737 -17.15575,1.655835 -22.7563,7.483548 -24.61703,11.411561 -0.71656,1.511074 -1.03893,2.935849 -1.12133,4.372315 0.46378,-3.746505 2.79276,-8.165033 8.8081,-8.165033 6.81431,0 8.89942,5.669589 8.89942,9.609851 5.5e-4,3.941933 -2.08456,9.611522 -8.89887,9.611522 z m 69.26665,-3.788263 h 9.07759 v 3.305544 h -12.8909 V 38.528357 H 394.245 V 53.479304 z M 380.24,46.94338 h 7.62776 v 9.841468 h -2.54278 l -0.38083,-2.288325 c -0.96655,1.117437 -2.36516,2.771602 -5.69631,2.771602 -4.39738,0 -8.38941,-3.152989 -8.38941,-9.5603 0,-4.983092 2.77159,-9.686686 8.9239,-9.661631 5.59332,0 7.80537,3.635709 8.00914,6.152309 h -3.81387 c 0,-0.712108 -1.29616,-2.99932 -3.99204,-2.99932 -2.72038,0 -5.23642,1.881326 -5.23642,6.559866 0,4.982535 2.72037,6.278139 5.31325,6.278139 0.83906,0 3.63571,-0.330165 4.42298,-4.015426 H 380.24 V 46.94338 z m -55.26222,-6.711307 c -3.96643,0 -6.35552,3.126821 -6.35552,7.423416 0,4.297152 2.38966,7.424529 6.35552,7.424529 3.96588,0 6.35609,-3.127377 6.35609,-7.424529 -5.5e-4,-4.296038 -2.39021,-7.423416 -6.35609,-7.423416 z m 10.2674,4.876749 h 1.85238 v 1.651938 h 0.045 c 0.46769,-0.668125 1.36131,-1.985443 3.48149,-1.985443 3.10344,0 5.31492,2.629068 5.31492,5.910115 0,2.791088 -1.6085,6.432921 -5.58272,6.432921 -1.56231,0 -2.58899,-0.735492 -3.10177,-1.561739 h -0.0451 v 5.848869 H 335.2451 V 45.108822 z m 4.9636,10.314723 c 2.14301,0 3.59619,-1.857384 3.59619,-4.424651 0,-1.495485 -0.60465,-4.460843 -3.64128,-4.460843 -2.8334,0 -3.14686,3.058339 -3.14686,4.955811 5.5e-4,3.103436 1.94145,3.929683 3.19195,3.929683 z m 17.61677,-2.300574 c -0.0657,0.558441 -0.60186,2.210934 -2.07564,3.191963 -0.53561,0.358003 -1.29449,0.802863 -3.16913,0.802863 -3.2816,0 -5.22362,-2.477627 -5.22362,-5.8472 0,-3.616779 1.74214,-6.495836 5.60222,-6.495836 3.3718,0 5.02263,2.679177 5.02263,6.808741 h -8.52694 c 0,2.433085 1.1386,3.839487 3.39351,3.839487 1.85293,0 2.94643,-1.429229 3.0138,-2.300574 h 1.96317 z m -2.08176,-3.10288 c -0.1108,-1.807276 -0.86968,-3.48204 -3.25766,-3.48204 -1.80895,0 -3.23762,1.674764 -3.23762,3.48204 h 6.49528 z m 13.09467,6.764757 h -1.96428 V 49.59639 c 0,-2.031654 -0.58071,-3.058339 -2.4999,-3.058339 -1.11688,0 -3.07949,0.71545 -3.07949,3.885142 v 6.362212 h -1.96485 V 45.108822 h 1.85293 v 1.651938 h 0.0445 c 0.42316,-0.623583 1.51721,-1.985443 3.52658,-1.985443 1.80728,0 4.08503,0.736051 4.08503,4.062751 v 7.94678 z"
   inkscape:connector-curvature="0"
   style="fill:#6f6f6f;fill-opacity:1" />
</svg>