<?xml version="1.0" encoding="UTF-8" standalone="no"?>
<!-- Generator: Adobe Illustrator 14.0.0, SVG Export Plug-In . SVG Version: 6.00 Build 43363)  -->

<svg
   xmlns:dc="http://purl.org/dc/elements/1.1/"
   xmlns:cc="http://creativecommons.org/ns#"
   xmlns:rdf="http://www.w3.org/1999/02/22-rdf-syntax-ns#"
   xmlns:svg="http://www.w3.org/2000/svg"
   xmlns="http://www.w3.org/2000/svg"
   xmlns:xlink="http://www.w3.org/1999/xlink"
   xmlns:sodipodi="http://sodipodi.sourceforge.net/DTD/sodipodi-0.dtd"
   xmlns:inkscape="http://www.inkscape.org/namespaces/inkscape"
   version="1.1"
   id="katman_1"
   x="0px"
   y="0px"
   width="100"
   height="100"
   viewBox="0 0 100 100"
   enable-background="new 0 0 342 322"
   xml:space="preserve"
   inkscape:version="0.48.5 r10040"
   sodipodi:docname="illustrator.svg"><metadata
   id="metadata7900"><rdf:RDF><cc:Work
       rdf:about=""><dc:format>image/svg+xml</dc:format><dc:type
         rdf:resource="http://purl.org/dc/dcmitype/StillImage" /><dc:title></dc:title></cc:Work></rdf:RDF></metadata><defs
   id="defs7898">
<inkscape:perspective
   inkscape:persp3d-origin="372.04724 : 350.78739 : 1"
   sodipodi:type="inkscape:persp3d"
   inkscape:vp_x="0 : 526.18109 : 1"
   inkscape:vp_y="0 : 1000 : 0"
   inkscape:vp_z="744.09448 : 526.18109 : 1"
   id="perspective2390">
		</inkscape:perspective>
	
		<inkscape:perspective
   inkscape:persp3d-origin="372.04724 : 350.78739 : 1"
   sodipodi:type="inkscape:persp3d"
   inkscape:vp_x="0 : 526.18109 : 1"
   inkscape:vp_y="0 : 1000 : 0"
   inkscape:vp_z="744.09448 : 526.18109 : 1"
   id="perspective10">
		</inkscape:perspective>
	
	
		<linearGradient
   gradientTransform="matrix(0,1,1,0,-462.8516,-122.9551)"
   y2="590.85162"
   x2="378.95511"
   y1="590.85162"
   x1="122.9551"
   gradientUnits="userSpaceOnUse"
   id="rect2396_1_"><stop
     id="stop8498"
     style="stop-color:#2E6EDC"
     offset="0" /><stop
     id="stop8500"
     style="stop-color:#1E50A0"
     offset="0.45" /><stop
     id="stop8502"
     style="stop-color:#0F3264"
     offset="1" /></linearGradient><linearGradient
   inkscape:collect="always"
   xlink:href="#rect2396_1_"
   id="linearGradient8579"
   gradientUnits="userSpaceOnUse"
   gradientTransform="matrix(0,1,1,0,-462.8516,-122.9551)"
   x1="122.9551"
   y1="590.85162"
   x2="378.95511"
   y2="590.85162" /><linearGradient
   inkscape:collect="always"
   xlink:href="#rect2396_1_"
   id="linearGradient8581"
   gradientUnits="userSpaceOnUse"
   gradientTransform="matrix(0,1,1,0,-462.8516,-122.9551)"
   x1="122.9551"
   y1="590.85162"
   x2="378.95511"
   y2="590.85162" /><linearGradient
   id="linearGradient8536"
   gradientUnits="userSpaceOnUse"
   x1="122.9551"
   y1="590.85162"
   x2="378.95511"
   y2="590.85162"
   gradientTransform="matrix(0,1,1,0,-462.8516,-122.9551)"><stop
     offset="0"
     style="stop-color:#2E6EDC"
     id="stop8538" /><stop
     offset="0.45"
     style="stop-color:#1E50A0"
     id="stop8540" /><stop
     offset="1"
     style="stop-color:#0F3264"
     id="stop8542" /></linearGradient><linearGradient
   inkscape:collect="always"
   xlink:href="#rect2396_1_"
   id="linearGradient8591"
   gradientUnits="userSpaceOnUse"
   gradientTransform="matrix(0,1,1,0,-519.90245,-257.37883)"
   x1="122.9551"
   y1="590.85162"
   x2="378.95511"
   y2="590.85162" /></defs><sodipodi:namedview
   pagecolor="#ffffff"
   bordercolor="#666666"
   borderopacity="1"
   objecttolerance="10"
   gridtolerance="10"
   guidetolerance="10"
   inkscape:pageopacity="0"
   inkscape:pageshadow="2"
   inkscape:window-width="1920"
   inkscape:window-height="1017"
   id="namedview7896"
   showgrid="false"
   inkscape:zoom="2.931677"
   inkscape:cx="-47.642382"
   inkscape:cy="48.626162"
   inkscape:window-x="-8"
   inkscape:window-y="112"
   inkscape:window-maximized="1"
   inkscape:current-layer="katman_1" />
<linearGradient
   id="SVGID_1_"
   gradientUnits="userSpaceOnUse"
   x1="162.9897"
   y1="306.05661"
   x2="162.9897"
   y2="0.00048828131">
	<stop
   offset="0"
   style="stop-color:#B2921C"
   id="stop7863" />
	<stop
   offset="1"
   style="stop-color:#FED642"
   id="stop7865" />
</linearGradient>

<linearGradient
   id="SVGID_2_"
   gradientUnits="userSpaceOnUse"
   x1="179.0625"
   y1="321.99609"
   x2="179.0625"
   y2="15.9404">
	<stop
   offset="0"
   style="stop-color:#A64F19"
   id="stop7870" />
	<stop
   offset="1"
   style="stop-color:#E5832B"
   id="stop7872" />
</linearGradient>

<linearGradient
   id="SVGID_3_"
   gradientUnits="userSpaceOnUse"
   x1="8.8705997"
   y1="322.0264"
   x2="8.8705997"
   y2="0.00048828131">
	<stop
   offset="0"
   style="stop-color:#824212"
   id="stop7877" />
	<stop
   offset="1"
   style="stop-color:#CC6633"
   id="stop7879" />
</linearGradient>




<linearGradient
   id="SVGID_4_"
   gradientUnits="userSpaceOnUse"
   x1="87.493202"
   y1="170.3438"
   x2="270.63281"
   y2="170.3438">
	<stop
   offset="0"
   style="stop-color:#FED642"
   id="stop7890" />
	<stop
   offset="1"
   style="stop-color:#FED642"
   id="stop7892" />
</linearGradient>

<path
   style="fill:#6f6f6f;fill-opacity:1"
   inkscape:connector-curvature="0"
   id="flowRoot3178"
   d="m 51.411569,33.156755 c 0,4.004485 -0.631712,7.616709 -1.894455,10.83667 -1.263426,3.219962 -3.069196,5.965115 -5.417312,8.235461 -2.348798,2.270346 -5.230391,4.024952 -8.644778,5.263818 -3.414387,1.237502 -7.489821,1.857617 -12.226302,1.857617 h -8.704811 v 28.856175 c 0,0.330182 -0.08869,0.618751 -0.266739,0.86707 -0.178052,0.248319 -0.454342,0.443427 -0.828867,0.588052 -0.375207,0.144626 -0.888218,0.268786 -1.539714,0.371797 -0.651497,0.102329 -1.470131,0.154858 -2.4572676,0.154858 -0.987136,0 -1.8057704,-0.05185 -2.4572669,-0.154858 C 6.3225601,89.930404 5.7993164,89.806244 5.4050076,89.661618 5.0100166,89.516993 4.7337276,89.321203 4.5761404,89.073566 4.4185533,88.825929 4.3401009,88.536678 4.3401009,88.206496 V 14.270863 c 0,-1.650912 0.4140925,-2.827699 1.2436418,-3.529678 0.8288672,-0.701297 1.7559705,-1.0526267 2.782674,-1.0526267 H 24.767754 c 1.657735,0 3.246567,0.07231 4.766498,0.216938 1.51993,0.1446247 3.315469,0.4543417 5.387978,0.9284677 2.072509,0.474807 4.183903,1.362343 6.335546,2.662607 2.150962,1.300264 3.977199,2.900012 5.476663,4.799243 1.500147,1.89855 2.654422,4.097265 3.463506,6.594782 0.808401,2.497516 1.213624,5.252902 1.213624,8.266159 l 0,0 z m -10.716604,0.86707 c 0,-3.260893 -0.582594,-5.985581 -1.747101,-8.173381 -1.164508,-2.1878 -2.605304,-3.818929 -4.321707,-4.892021 -1.717085,-1.073093 -3.493521,-1.754607 -5.329309,-2.043858 -1.835105,-0.288568 -3.621774,-0.433193 -5.357961,-0.433193 h -9.414294 v 32.137533 h 9.177572 c 3.078747,0 5.63425,-0.412728 7.667192,-1.238184 2.032942,-0.825456 3.739794,-1.971544 5.121922,-3.4369 1.381445,-1.465355 2.427251,-3.219961 3.138098,-5.263135 0.710165,-2.043175 1.065588,-4.262356 1.065588,-6.656861 l 0,0 z" /><g
   id="flowRoot3186"
   transform="matrix(0.6821952,0,0,0.6821952,-37.956001,-33.971936)" /><path
   style="fill:#6f6f6f;fill-opacity:1"
   inkscape:connector-curvature="0"
   id="flowRoot3194"
   d="m 97.487032,72.688602 c 0,2.785403 -0.515058,5.267911 -1.54449,7.447525 -1.029433,2.179613 -2.492059,4.017447 -4.389927,5.510091 -1.897184,1.493325 -4.158661,2.624405 -6.781702,3.391191 -2.62304,0.766788 -5.510091,1.150182 -8.659103,1.150182 -1.937435,0 -3.784137,-0.151447 -5.540108,-0.454342 C 68.815734,89.431036 67.241909,89.046961 65.848867,88.583067 64.455824,88.11781 63.275627,87.634134 62.30691,87.129309 61.338192,86.624485 60.631438,86.170825 60.187329,85.766966 59.743902,85.363107 59.421223,84.798249 59.218612,84.07171 59.017364,83.345855 58.9164,82.35599 58.9164,81.104161 c 0,-0.766787 0.04025,-1.412143 0.12143,-1.937434 0.0805,-0.52529 0.181464,-0.948933 0.302212,-1.27093 0.121431,-0.324042 0.293344,-0.555307 0.515057,-0.696521 0.221714,-0.141214 0.473444,-0.212163 0.756555,-0.212163 0.444109,0 1.099699,0.272196 1.968133,0.817271 0.868435,0.545074 1.938117,1.14063 3.209047,1.785986 1.270929,0.64604 2.77517,1.241595 4.511355,1.78667 1.735504,0.545074 3.733654,0.816587 5.994449,0.816587 1.694572,0 3.22883,-0.181463 4.601406,-0.545074 1.372577,-0.362927 2.563008,-0.897768 3.572657,-1.604523 1.008966,-0.706071 1.785987,-1.604522 2.331061,-2.693988 0.545073,-1.089466 0.817269,-2.382226 0.817269,-3.876233 0,-1.533575 -0.393627,-2.825653 -1.180197,-3.874869 -0.787253,-1.049899 -1.826919,-1.978366 -3.118997,-2.786086 -1.291395,-0.807718 -2.744471,-1.523341 -4.359909,-2.148914 -1.614074,-0.625573 -3.279312,-1.281844 -4.995034,-1.968134 -1.715721,-0.686288 -3.391192,-1.463308 -5.025729,-2.331742 -1.63454,-0.86707 -3.097849,-1.926519 -4.389926,-3.178348 -1.292078,-1.251828 -2.331062,-2.745153 -3.118315,-4.480658 -0.787253,-1.735505 -1.180198,-3.814836 -1.180198,-6.236628 0,-2.139365 0.412728,-4.187997 1.240914,-6.145897 0.827503,-1.9579 2.068415,-3.673622 3.723421,-5.14648 1.655687,-1.473542 3.724104,-2.654422 6.207292,-3.541958 2.482509,-0.888218 5.379109,-1.332327 8.68912,-1.332327 1.453076,0 2.906151,0.120748 4.359909,0.362928 1.453077,0.242179 2.764938,0.545073 3.936267,0.908684 1.169965,0.363609 2.169381,0.756554 2.996884,1.180879 0.827503,0.423644 1.453758,0.796805 1.8774,1.120165 0.423644,0.322678 0.706072,0.605789 0.847287,0.847968 0.141214,0.24218 0.242179,0.514376 0.302895,0.81727 0.06072,0.302895 0.120749,0.676056 0.182146,1.120165 0.06003,0.444109 0.09073,0.989183 0.09073,1.635221 0,0.686289 -0.0307,1.281164 -0.09073,1.785988 -0.0614,0.504825 -0.16168,0.918234 -0.302895,1.241595 -0.141215,0.322679 -0.312445,0.554625 -0.515057,0.696521 -0.201248,0.141215 -0.423643,0.212163 -0.665822,0.212163 -0.362929,0 -0.888219,-0.221713 -1.574507,-0.665822 -0.686289,-0.444109 -1.575188,-0.918235 -2.664654,-1.42306 -1.089466,-0.504824 -2.371994,-0.978949 -3.844852,-1.423059 -1.47286,-0.444109 -3.158564,-0.665822 -5.055749,-0.665822 -1.695256,0 -3.189263,0.191696 -4.480659,0.57509 -1.292077,0.384076 -2.351526,0.928468 -3.179029,1.63454 -0.827503,0.706754 -1.453758,1.54449 -1.877401,2.513207 -0.423643,0.968717 -0.635806,2.018616 -0.635806,3.149013 0,1.574506 0.403859,2.896601 1.210896,3.966283 0.807719,1.069683 1.857618,2.008382 3.148331,2.81542 1.292078,0.807718 2.765619,1.534256 4.419943,2.179613 1.655688,0.645357 3.34071,1.311862 5.055748,1.99815 1.716404,0.686288 3.410976,1.453758 5.08713,2.301044 1.674789,0.84797 3.157881,1.877402 4.449959,3.088298 1.291396,1.210897 2.331061,2.663973 3.117633,4.35991 0.787934,1.694573 1.181562,3.712506 1.181562,6.054482 l 0,0 z" /></svg>