<?xml version="1.0" encoding="UTF-8" standalone="no"?>
<!-- Generator: Adobe Illustrator 15.0.0, SVG Export Plug-In . SVG Version: 6.00 Build 0)  -->

<svg
   xmlns:dc="http://purl.org/dc/elements/1.1/"
   xmlns:cc="http://creativecommons.org/ns#"
   xmlns:rdf="http://www.w3.org/1999/02/22-rdf-syntax-ns#"
   xmlns:svg="http://www.w3.org/2000/svg"
   xmlns="http://www.w3.org/2000/svg"
   xmlns:sodipodi="http://sodipodi.sourceforge.net/DTD/sodipodi-0.dtd"
   xmlns:inkscape="http://www.inkscape.org/namespaces/inkscape"
   enable-background="new 0 0 800 600"
   xml:space="preserve"
   height="100"
   viewBox="0 0 99.999393 99.998727"
   width="100"
   version="1.1"
   y="0px"
   x="0px"
   id="svg3193"
   inkscape:version="0.48.5 r10040"
   sodipodi:docname="redis.svg"><defs
     id="defs3233" /><sodipodi:namedview
     pagecolor="#ffffff"
     bordercolor="#666666"
     borderopacity="1"
     objecttolerance="10"
     gridtolerance="10"
     guidetolerance="10"
     inkscape:pageopacity="0"
     inkscape:pageshadow="2"
     inkscape:window-width="1920"
     inkscape:window-height="1017"
     id="namedview3231"
     showgrid="false"
     inkscape:zoom="5.692577"
     inkscape:cx="62.650663"
     inkscape:cy="50.198133"
     inkscape:window-x="-8"
     inkscape:window-y="-8"
     inkscape:window-maximized="1"
     inkscape:current-layer="svg3193" /><metadata
     id="metadata3195"><rdf:RDF><cc:Work
         rdf:about=""><dc:format>image/svg+xml</dc:format><dc:type
           rdf:resource="http://purl.org/dc/dcmitype/StillImage" /><dc:title></dc:title></cc:Work></rdf:RDF></metadata><path
     style="fill:#656565;fill-opacity:1"
     inkscape:connector-curvature="0"
     id="path3209"
     d="m 95.149949,76.304837 c -5.21585,3.12426 -32.236214,15.890679 -37.988695,19.33648 -5.752484,3.447097 -8.948181,3.413437 -13.492367,0.917068 C 39.124699,94.062017 10.370321,80.715246 5.1906723,77.870269 2.6017103,76.44811 1.2405793,75.248451 1.2405793,74.114817 V 62.761974 c 0,0 37.4342397,-9.364858 43.4780267,-11.855947 6.04321,-2.491748 8.139776,-2.581542 13.282654,-0.416611 5.143448,2.164929 35.894989,8.540876 40.978119,10.680057 0,0 -0.003,10.139321 -0.003,11.191744 5.7e-4,1.12241 -1.1721,2.353759 -3.82713,3.94362 z" /><path
     style="fill:#6f6f6f;fill-opacity:1"
     inkscape:connector-curvature="0"
     id="path3211"
     d="M 95.149949,64.948692 C 89.934099,68.071632 62.913735,80.839372 57.161254,84.28517 51.40877,87.732288 48.213073,87.698616 43.668887,85.202245 39.124125,82.707194 10.370321,69.357782 5.1906723,66.514124 0.0110233,63.669145 -0.0975677,61.710871 4.9907253,59.421816 10.078446,57.13144 38.674819,44.238914 44.71918,41.747165 c 6.043211,-2.49043 8.139777,-2.581542 13.282654,-0.415953 5.14345,2.164932 32.002355,14.450034 37.084905,16.589215 5.083701,2.141162 5.279051,3.904005 0.0632,7.028265 z" /><path
     style="fill:#656565;fill-opacity:1"
     inkscape:connector-curvature="0"
     id="path3213"
     d="M 95.149949,57.79168 C 89.934099,60.91594 62.913735,73.682361 57.161254,77.129479 51.40877,80.575276 48.213073,80.541604 43.668887,78.045232 39.124125,75.550182 10.370321,62.20209 5.1906723,59.357112 2.6017103,57.934952 1.2405793,56.736616 1.2405793,55.602982 V 44.248817 c 0,0 37.4342397,-9.364197 43.4780267,-11.855946 6.04321,-2.491089 8.139776,-2.581542 13.282654,-0.416612 5.143448,2.16493 35.894989,8.539556 40.978119,10.679397 0,0 -0.003,10.13932 -0.003,11.193065 5.7e-4,1.12175 -1.1721,2.353099 -3.82713,3.942959 z" /><path
     style="fill:#6f6f6f;fill-opacity:1"
     inkscape:connector-curvature="0"
     id="path3215"
     d="M 95.149949,46.435535 C 89.934099,49.559796 62.913735,62.326216 57.161254,65.773334 51.40877,69.219131 48.213073,69.185459 43.668887,66.689088 39.124125,64.194037 10.370321,50.845285 5.1906723,48.000967 0.0110233,45.156649 -0.0975677,43.198374 4.9907253,40.907998 10.078446,38.618944 38.674819,25.725757 44.71918,23.234669 c 6.043211,-2.49109 8.139777,-2.581543 13.282654,-0.416613 5.14345,2.16493 32.002355,14.449374 37.084905,16.589215 5.083701,2.140501 5.279051,3.904005 0.0632,7.028264 z" /><path
     style="fill:#656565;fill-opacity:1"
     inkscape:connector-curvature="0"
     id="path3217"
     d="M 95.149949,38.591873 C 89.934099,41.716134 62.913735,54.483212 57.161254,57.930331 51.40877,61.376129 48.213073,61.342456 43.668887,58.846085 39.124125,56.351035 10.370321,43.002282 5.1906723,40.157965 2.6017103,38.735806 1.2405793,37.536808 1.2405793,36.403835 V 25.049671 c 0,0 37.4342397,-9.364197 43.4780267,-11.855286 6.04321,-2.491749 8.139776,-2.581543 13.282654,-0.416613 5.143448,2.16493 35.894989,8.539557 40.978119,10.679398 0,0 -0.003,10.13932 -0.003,11.192405 5.7e-4,1.121088 -1.1721,2.352438 -3.82713,3.942298 z" /><path
     style="fill:#656565;fill-opacity:1"
     inkscape:connector-curvature="0"
     id="path3217-7"
     d="m 58.739087,11.750177 c -0.912971,0.646469 -5.642555,3.288223 -6.649454,4.001499 -1.006901,0.713001 -1.56627,0.706034 -2.361671,0.189485 -0.795507,-0.516271 -5.828506,-3.278386 -6.735139,-3.866931 -0.453167,-0.294271 -0.691416,-0.542368 -0.691416,-0.7768 V 8.9480329 c 0,0 6.552404,-1.9376304 7.610292,-2.4530866 1.05779,-0.5155894 1.424771,-0.5341704 2.324967,-0.086196 0.900295,0.4479665 6.282975,1.7669984 7.172715,2.2097745 0,0 -5.25e-4,2.0980187 -5.25e-4,2.3159217 1e-4,0.231976 -0.205167,0.486765 -0.669892,0.815739 z" /><path
     style="fill:#6f6f6f;fill-opacity:1"
     d="M 51.6875 2.09375 C 49.765086 2.1569683 47.740374 2.7853678 44.71875 4.03125 C 38.674352 6.5230152 10.087752 19.42902 5 21.71875 C -0.088323886 24.00848 0.0078195593 25.968165 5.1875 28.8125 C 10.36718 31.656836 39.112034 45.004274 43.65625 47.5 C 48.200464 49.995726 51.403731 50.008319 57.15625 46.5625 C 62.908766 43.116022 89.940368 30.374279 95.15625 27.25 C 100.37213 24.126381 100.17748 22.357944 95.09375 20.21875 C 90.011169 18.078897 63.143481 5.7899431 58 3.625 C 55.428546 2.5421984 53.609914 2.0305317 51.6875 2.09375 z M 44.8125 8.03125 L 51.65625 11.09375 L 58.09375 8.6875 L 56.34375 13.46875 L 62.90625 16.3125 L 54.4375 17.3125 L 52.5625 22.5625 L 49.5 16.71875 L 39.71875 15.6875 L 47 12.65625 L 44.8125 8.03125 z M 30.125 19.21875 C 36.810659 19.21875 42.25 21.615709 42.25 24.59375 C 42.25 27.571791 36.810659 30 30.125 30 C 23.439341 30 18.03125 27.571791 18.03125 24.59375 C 18.03125 21.615709 23.439341 19.21875 30.125 19.21875 z M 58.875 30.21875 L 52.03125 41.75 L 36.25 34.1875 L 58.875 30.21875 z "
     transform="matrix(0.99999393,0,0,0.99999393,0,-3.33e-4)"
     id="path3219" /><polygon
     style="fill:#5b5b5b;fill-opacity:1"
     id="polygon3227"
     points="296.11,269.26 296.09,250.83 319.42,260.05 "
     transform="matrix(0.57455898,0,0,0.66024096,-97.19516,-147.87342)" /><polygon
     style="fill:#656565;fill-opacity:1"
     id="polygon3229"
     points="270.28,261.04 296.09,250.83 296.11,269.26 293.58,270.25 "
     transform="matrix(0.57455898,0,0,0.66024096,-97.19516,-147.87342)" /></svg>