<?xml version="1.0" encoding="UTF-8"?>
<svg width="277px" height="106px" viewBox="0 0 277 106" version="1.1" xmlns="http://www.w3.org/2000/svg" xmlns:xlink="http://www.w3.org/1999/xlink">
    <!-- Generator: Sketch 51.1 (57501) - http://www.bohemiancoding.com/sketch -->
    <title>Lato-Black-Italic Copy 2</title>
    <desc>Created with Sketch.</desc>
    <defs></defs>
    <g id="Lato-Black-Italic-Copy-2" stroke="none" stroke-width="1" fill="none" fill-rule="evenodd">
        <g id="Group" fill="#133142">
            <path d="M31.569,59.83 C25.7036373,59.83 20.4055237,58.5435129 15.6745,55.9705 C10.9434763,53.3974871 7.23618009,49.842356 4.5525,45.305 C1.86881992,40.767644 0.527,35.6493618 0.527,29.95 C0.527,24.2506382 1.88265311,19.132356 4.594,14.595 C7.30534689,10.057644 11.0264763,6.50251287 15.7575,3.9295 C20.4885237,1.35648714 25.7866373,0.07 31.652,0.07 C36.4106905,0.07 40.7543137,0.8999917 44.683,2.56 C48.6116863,4.2200083 51.9316531,6.62698423 54.643,9.781 L47.671,16.338 C43.4656456,11.800644 38.2920307,9.532 32.15,9.532 C28.1659801,9.532 24.5970158,10.4034913 21.443,12.1465 C18.2889842,13.8895087 15.8266755,16.3103178 14.056,19.409 C12.2853245,22.5076822 11.4,26.0213137 11.4,29.95 C11.4,33.8786863 12.2853245,37.3923178 14.056,40.491 C15.8266755,43.5896822 18.2889842,46.0104913 21.443,47.7535 C24.5970158,49.4965087 28.1659801,50.368 32.15,50.368 C38.2920307,50.368 43.4656456,48.0716896 47.671,43.479 L54.643,50.119 C51.9316531,53.2730158 48.5978531,55.6799917 44.6415,57.34 C40.6851469,59.0000083 36.3276905,59.83 31.569,59.83 Z M106.522,14.678 L85.772,62.569 C83.8353237,67.3830241 81.4836805,70.7721568 78.717,72.7365 C75.9503195,74.7008432 72.6026863,75.683 68.674,75.683 C66.4606556,75.683 64.2750108,75.3233369 62.117,74.604 C59.9589892,73.8846631 58.1883403,72.888673 56.805,71.616 L60.955,63.98 C61.951005,64.9206714 63.1268266,65.6676639 64.4825,66.221 C65.8381734,66.7743361 67.2076598,67.051 68.591,67.051 C70.4170091,67.051 71.9248274,66.5806714 73.1145,65.64 C74.3041726,64.6993286 75.396995,63.1223444 76.393,60.909 L77.14,59.166 L57.801,14.678 L68.591,14.678 L82.535,47.463 L96.562,14.678 L106.522,14.678 Z M141.884,56.593 C140.666661,57.589005 139.186509,58.3359975 137.4435,58.834 C135.700491,59.3320025 133.860676,59.581 131.924,59.581 C127.054642,59.581 123.292013,58.3083461 120.636,55.763 C117.979987,53.2176539 116.652,49.5103577 116.652,44.641 L116.652,23.31 L109.348,23.31 L109.348,15.01 L116.652,15.01 L116.652,4.884 L127.027,4.884 L127.027,15.01 L138.896,15.01 L138.896,23.31 L127.027,23.31 L127.027,44.392 C127.027,46.5500108 127.552661,48.196161 128.604,49.3305 C129.655339,50.464839 131.17699,51.032 133.169,51.032 C135.493012,51.032 137.429659,50.4233394 138.979,49.206 L141.884,56.593 Z M191.605,37.088 C191.605,37.8073369 191.549667,38.8309934 191.439,40.159 L156.662,40.159 C157.27067,43.423683 158.861487,46.0104905 161.4345,47.9195 C164.007513,49.8285095 167.202981,50.783 171.021,50.783 C175.890358,50.783 179.901984,49.1783494 183.056,45.969 L188.617,52.36 C186.62499,54.7393452 184.107349,56.5376606 181.064,57.755 C178.020651,58.9723394 174.590019,59.581 170.772,59.581 C165.902642,59.581 161.614352,58.6126764 157.907,56.676 C154.199648,54.7393237 151.336177,52.0418506 149.3165,48.5835 C147.296823,45.1251494 146.287,41.2103552 146.287,36.839 C146.287,32.5229784 147.269157,28.6358506 149.2335,25.1775 C151.197843,21.7191494 153.922983,19.0216764 157.409,17.085 C160.895017,15.1483237 164.823645,14.18 169.195,14.18 C173.511022,14.18 177.370483,15.1344905 180.7735,17.0435 C184.176517,18.9525095 186.83249,21.6361494 188.7415,25.0945 C190.65051,28.5528506 191.605,32.550644 191.605,37.088 Z M169.195,22.48 C165.874983,22.48 163.066845,23.4621568 160.7705,25.4265 C158.474155,27.3908432 157.077002,30.005317 156.579,33.27 L181.728,33.27 C181.285331,30.0606506 179.929678,27.46001 177.661,25.468 C175.392322,23.47599 172.57035,22.48 169.195,22.48 Z M212.442,21.152 C215.430015,16.5039768 220.686629,14.18 228.212,14.18 L228.212,24.057 C227.326662,23.8909992 226.524337,23.808 225.805,23.808 C221.765646,23.808 218.611678,24.9838216 216.343,27.3355 C214.074322,29.6871784 212.94,33.0763112 212.94,37.503 L212.94,59 L202.565,59 L202.565,14.678 L212.442,14.678 L212.442,21.152 Z M255.357,14.18 C261.886366,14.18 266.880149,15.743151 270.3385,18.8695 C273.796851,21.995849 275.526,26.7129685 275.526,33.021 L275.526,59 L265.732,59 L265.732,53.605 C264.459327,55.5416764 262.647178,57.0218282 260.2955,58.0455 C257.943822,59.0691718 255.108017,59.581 251.788,59.581 C248.467983,59.581 245.563012,59.013839 243.073,57.8795 C240.582988,56.745161 238.660173,55.1681768 237.3045,53.1485 C235.948827,51.1288232 235.271,48.8463461 235.271,46.301 C235.271,42.3169801 236.751152,39.121512 239.7115,36.7145 C242.671848,34.307488 247.333635,33.104 253.697,33.104 L265.151,33.104 L265.151,32.44 C265.151,29.3413178 264.224176,26.9620083 262.3705,25.302 C260.516824,23.6419917 257.764018,22.812 254.112,22.812 C251.621988,22.812 249.173512,23.1993295 246.7665,23.974 C244.359488,24.7486705 242.326008,25.8276598 240.666,27.211 L236.599,19.658 C238.923012,17.8873245 241.717317,16.5316714 244.982,15.591 C248.246683,14.6503286 251.704982,14.18 255.357,14.18 Z M253.946,52.028 C256.54668,52.028 258.856823,51.4331726 260.8765,50.2435 C262.896177,49.0538274 264.320996,47.3523444 265.151,45.139 L265.151,39.993 L254.444,39.993 C248.46797,39.993 245.48,41.9573137 245.48,45.886 C245.48,47.7673427 246.226993,49.2613278 247.721,50.368 C249.215007,51.4746722 251.289987,52.028 253.946,52.028 Z" id="Cytera"></path>
            <path d="M123.824,105.198 C121.535989,105.198 119.473509,104.692005 117.6365,103.68 C115.799491,102.667995 114.358505,101.265509 113.3135,99.4725 C112.268495,97.679491 111.746,95.6720111 111.746,93.45 C111.746,91.2279889 112.268495,89.220509 113.3135,87.4275 C114.358505,85.634491 115.804991,84.2320051 117.653,83.22 C119.501009,82.2079949 121.568989,81.702 123.857,81.702 C125.573009,81.702 127.156993,81.9879971 128.609,82.56 C130.061007,83.1320029 131.292995,83.9679945 132.305,85.068 L130.754,86.619 C128.949991,84.7929909 126.673014,83.88 123.923,83.88 C122.096991,83.88 120.436007,84.2979958 118.94,85.134 C117.443993,85.9700042 116.272504,87.1139927 115.4255,88.566 C114.578496,90.0180073 114.155,91.645991 114.155,93.45 C114.155,95.254009 114.578496,96.8819927 115.4255,98.334 C116.272504,99.7860073 117.443993,100.929996 118.94,101.766 C120.436007,102.602004 122.096991,103.02 123.923,103.02 C126.695014,103.02 128.971991,102.096009 130.754,100.248 L132.305,101.799 C131.292995,102.899006 130.055507,103.740497 128.5925,104.3235 C127.129493,104.906503 125.540009,105.198 123.824,105.198 Z M152.138,97.047 L137.618,97.047 C137.750001,98.851009 138.442994,100.308494 139.697,101.4195 C140.951006,102.530506 142.53499,103.086 144.449,103.086 C145.527005,103.086 146.516995,102.893502 147.419,102.5085 C148.321005,102.123498 149.101997,101.557004 149.762,100.809 L151.082,102.327 C150.311996,103.251005 149.349506,103.954998 148.1945,104.439 C147.039494,104.923002 145.769007,105.165 144.383,105.165 C142.600991,105.165 141.022507,104.785504 139.6475,104.0265 C138.272493,103.267496 137.200004,102.217007 136.43,100.875 C135.659996,99.5329933 135.275,98.0150085 135.275,96.321 C135.275,94.6269915 135.643496,93.1090067 136.3805,91.767 C137.117504,90.4249933 138.129494,89.3800037 139.4165,88.632 C140.703506,87.8839963 142.149992,87.51 143.756,87.51 C145.362008,87.51 146.802994,87.8839963 148.079,88.632 C149.355006,89.3800037 150.355996,90.4194933 151.082,91.7505 C151.808004,93.0815067 152.171,94.6049914 152.171,96.321 L152.138,97.047 Z M143.756,89.523 C142.083992,89.523 140.681506,90.0564947 139.5485,91.1235 C138.415494,92.1905053 137.772001,93.5819914 137.618,95.298 L149.927,95.298 C149.772999,93.5819914 149.129506,92.1905053 147.9965,91.1235 C146.863494,90.0564947 145.450008,89.523 143.756,89.523 Z M156.956,80.514 L159.299,80.514 L159.299,105 L156.956,105 L156.956,80.514 Z M165.833,80.514 L168.176,80.514 L168.176,105 L165.833,105 L165.833,80.514 Z M206.918,81.9 L199.13,105 L196.556,105 L189.791,85.299 L182.993,105 L180.452,105 L172.664,81.9 L175.172,81.9 L181.838,101.766 L188.735,81.9 L191.012,81.9 L197.81,101.865 L204.575,81.9 L206.918,81.9 Z M218.468,105.165 C216.795992,105.165 215.289007,104.785504 213.947,104.0265 C212.604993,103.267496 211.549004,102.217007 210.779,100.875 C210.008996,99.5329933 209.624,98.0150085 209.624,96.321 C209.624,94.6269915 210.008996,93.1090067 210.779,91.767 C211.549004,90.4249933 212.604993,89.3800037 213.947,88.632 C215.289007,87.8839963 216.795992,87.51 218.468,87.51 C220.140008,87.51 221.646993,87.8839963 222.989,88.632 C224.331007,89.3800037 225.381496,90.4249933 226.1405,91.767 C226.899504,93.1090067 227.279,94.6269915 227.279,96.321 C227.279,98.0150085 226.899504,99.5329933 226.1405,100.875 C225.381496,102.217007 224.331007,103.267496 222.989,104.0265 C221.646993,104.785504 220.140008,105.165 218.468,105.165 Z M218.468,103.086 C219.700006,103.086 220.805495,102.805503 221.7845,102.2445 C222.763505,101.683497 223.527997,100.886005 224.078,99.852 C224.628003,98.8179948 224.903,97.6410066 224.903,96.321 C224.903,95.0009934 224.628003,93.8240052 224.078,92.79 C223.527997,91.7559948 222.763505,90.9585028 221.7845,90.3975 C220.805495,89.8364972 219.700006,89.556 218.468,89.556 C217.235994,89.556 216.130505,89.8364972 215.1515,90.3975 C214.172495,90.9585028 213.402503,91.7559948 212.8415,92.79 C212.280497,93.8240052 212,95.0009934 212,96.321 C212,97.6410066 212.280497,98.8179948 212.8415,99.852 C213.402503,100.886005 214.172495,101.683497 215.1515,102.2445 C216.130505,102.805503 217.235994,103.086 218.468,103.086 Z M234.308,91.041 C234.858003,89.8749942 235.677495,88.995003 236.7665,88.401 C237.855505,87.806997 239.202992,87.51 240.809,87.51 L240.809,89.787 L240.248,89.754 C238.421991,89.754 236.992005,90.3149944 235.958,91.437 C234.923995,92.5590056 234.407,94.1319899 234.407,96.156 L234.407,105 L232.064,105 L232.064,87.642 L234.308,87.642 L234.308,91.041 Z M251.732,96.288 L247.64,100.05 L247.64,105 L245.297,105 L245.297,80.514 L247.64,80.514 L247.64,97.113 L258.002,87.642 L260.906,87.642 L253.481,94.737 L261.599,105 L258.728,105 L251.732,96.288 Z M269.783,105.165 C268.374993,105.165 267.027506,104.961502 265.7405,104.5545 C264.453494,104.147498 263.447004,103.636003 262.721,103.02 L263.777,101.172 C264.503004,101.744003 265.415995,102.211498 266.516,102.5745 C267.616006,102.937502 268.759994,103.119 269.948,103.119 C271.532008,103.119 272.703496,102.871502 273.4625,102.3765 C274.221504,101.881498 274.601,101.183005 274.601,100.281 C274.601,99.6429968 274.392002,99.1425018 273.974,98.7795 C273.555998,98.4164982 273.028003,98.1415009 272.39,97.9545 C271.751997,97.7674991 270.905005,97.5860009 269.849,97.41 C268.440993,97.1459987 267.308004,96.8765014 266.45,96.6015 C265.591996,96.3264986 264.860503,95.8590033 264.2555,95.199 C263.650497,94.5389967 263.348,93.6260058 263.348,92.46 C263.348,91.0079927 263.952994,89.8200046 265.163,88.896 C266.373006,87.9719954 268.055989,87.51 270.212,87.51 C271.334006,87.51 272.455994,87.6584985 273.578,87.9555 C274.700006,88.2525015 275.623996,88.6429976 276.35,89.127 L275.327,91.008 C273.896993,90.0179951 272.19201,89.523 270.212,89.523 C268.715993,89.523 267.588504,89.7869974 266.8295,90.315 C266.070496,90.8430026 265.691,91.5359957 265.691,92.394 C265.691,93.0540033 265.905498,93.581998 266.3345,93.978 C266.763502,94.374002 267.296997,94.6654991 267.935,94.8525 C268.573003,95.0395009 269.452994,95.231999 270.575,95.43 C271.961007,95.6940013 273.071996,95.9579987 273.908,96.222 C274.744004,96.4860013 275.458997,96.9369968 276.053,97.575 C276.647003,98.2130032 276.944,99.0929944 276.944,100.215 C276.944,101.733008 276.311506,102.937496 275.0465,103.8285 C273.781494,104.719504 272.027011,105.165 269.783,105.165 Z" id="CellWorks"></path>
        </g>
    </g>
</svg>